<svg width="31" height="32" viewBox="0 0 31 32" fill="none" xmlns="http://www.w3.org/2000/svg">
<g clip-path="url(#clip0_413_714)">
<path d="M30.6087 16.0221C30.6015 24.8557 23.7431 32.0071 15.2828 31.9995C6.83317 31.992 -0.00720888 24.8219 -2.48641e-05 15.977C0.00715915 7.13082 6.87747 -0.0179808 15.3558 -0.00045613C23.7862 0.0170685 30.6159 7.19091 30.6099 16.0221H30.6087ZM29.6089 16.0096C29.6245 7.73918 23.2307 1.04852 15.3067 1.04476C7.39712 1.04101 1.04166 7.67283 0.999751 15.9745C0.957844 24.2224 7.35042 30.9243 15.2876 30.9543C23.1888 30.9844 29.5933 24.3012 29.6089 16.0096Z" fill="#575959"/>
<path d="M28.5014 15.9885C28.5301 23.5466 22.6165 29.7428 15.3223 29.7954C8.10357 29.848 2.09534 23.5729 2.10851 15.9948C2.12168 8.40158 8.04251 2.21287 15.302 2.20411C22.5482 2.19535 28.4715 8.38155 28.5014 15.9897V15.9885ZM14.817 3.28939C8.79563 3.43584 3.36571 8.67446 3.13822 15.4903C3.2364 15.4903 3.33219 15.4903 3.42917 15.4903C3.98713 15.4903 4.54509 15.489 5.10305 15.4903C5.53409 15.4915 5.74362 15.6655 5.74003 16.0073C5.73644 16.3465 5.5293 16.508 5.08988 16.5105C4.53192 16.513 3.97396 16.5105 3.416 16.5105C3.32141 16.5105 3.22682 16.5192 3.13343 16.5242C3.44354 23.8558 9.3488 28.6588 14.8158 28.6976C14.8158 28.585 14.8158 28.4723 14.8158 28.3596C14.8158 27.745 14.811 27.1304 14.8218 26.5158C14.8266 26.1941 15.023 25.9988 15.3032 25.9988C15.5833 25.9988 15.7797 26.1941 15.7869 26.5145C15.7977 26.994 15.7917 27.4734 15.7917 27.9516C15.7917 28.2082 15.7917 28.4635 15.7917 28.7214C22.5375 28.446 27.3627 22.5502 27.4573 16.5105C27.3591 16.5105 27.2621 16.5105 27.164 16.5105C26.606 16.5105 26.048 16.513 25.4901 16.5105C25.0782 16.508 24.8735 16.3402 24.8687 16.0098C24.8639 15.668 25.0746 15.4941 25.5033 15.4915C25.7822 15.489 26.0612 15.4915 26.3402 15.4915C26.7162 15.4915 27.0921 15.4915 27.4693 15.4915C27.2586 8.77585 21.9112 3.45337 15.7929 3.28939C15.7929 3.40205 15.7929 3.51345 15.7929 3.62611C15.7905 4.262 15.7977 4.89665 15.7833 5.53254C15.7761 5.8242 15.5618 6.01071 15.2912 6.0032C15.0349 5.99694 14.8482 5.81419 14.8254 5.53379C14.8134 5.38859 14.8182 5.24213 14.8182 5.09693C14.8182 4.49483 14.8182 3.89274 14.8182 3.29189L14.817 3.28939Z" fill="#575959"/>
<path d="M8.49629 23.6935C8.03771 23.6872 7.83655 23.3217 8.01017 22.9049C8.36218 22.0574 8.72498 21.215 9.08418 20.3713C10.0971 17.9904 11.1125 15.6108 12.1194 13.2275C12.2308 12.9634 12.39 12.7919 12.6439 12.6742C15.7042 11.2585 18.7598 9.83397 21.819 8.41698C21.9591 8.35189 22.1268 8.30432 22.2752 8.3206C22.626 8.3569 22.759 8.73368 22.5805 9.15302C22.0298 10.4536 21.4754 11.7517 20.9222 13.051C20.1104 14.9574 19.2963 16.8626 18.4916 18.7715C18.3803 19.0357 18.2222 19.2084 17.9672 19.3261C14.9164 20.7368 11.868 22.1551 8.81957 23.5708C8.69385 23.6284 8.56214 23.6697 8.49629 23.6935ZM21.2012 9.83523C18.603 11.0419 16.0802 12.2136 13.494 13.4153C13.7155 13.6318 13.9035 13.8008 14.0735 13.9886C14.18 14.1062 14.2615 14.0975 14.4051 14.0512C14.7236 13.9485 15.0613 13.8171 15.3834 13.8359C17.0129 13.9285 17.8056 15.6759 17.1674 16.9678C17.1363 17.0291 17.1183 17.148 17.1506 17.1856C17.3458 17.4121 17.5577 17.6237 17.7888 17.8653C18.9299 15.179 20.0494 12.5465 21.2012 9.83397V9.83523ZM9.40746 22.1651C12.0081 20.9571 14.5285 19.7867 17.0381 18.6201C16.8046 18.3785 16.5819 18.1469 16.346 17.9028C15.6013 18.2083 15.2864 18.2496 14.7691 18.0968C13.5071 17.7251 12.8845 16.3244 13.4173 15.0713C13.4521 14.99 13.4832 14.8548 13.4449 14.8022C13.2713 14.5644 13.0725 14.3466 12.8438 14.0749C11.6812 16.81 10.5617 19.445 9.40506 22.1651H9.40746ZM16.3843 16.0127C16.3879 15.378 15.9234 14.8773 15.3235 14.8711C14.7141 14.8648 14.2327 15.348 14.2243 15.9726C14.216 16.6248 14.6841 17.128 15.3007 17.1292C15.9066 17.1305 16.3819 16.641 16.3843 16.0114V16.0127Z" fill="#575959"/>
</g>
<defs>
<clipPath id="clip0_413_714">
<rect width="30.6087" height="32" fill="white"/>
</clipPath>
</defs>
</svg>
