<svg width="16" height="16" viewBox="0 0 16 16" fill="none" xmlns="http://www.w3.org/2000/svg">
<g id="Sun Light Icon" clip-path="url(#clip0_1_573)">
<path id="Vector" d="M2.4385 2.75119C2.81484 2.7443 3.18367 2.81629 3.55564 2.8576C3.75852 2.88014 3.96079 2.88389 4.16367 2.8745C4.35341 2.86574 4.463 2.75306 4.52875 2.58405C4.66088 2.24289 4.7116 1.88295 4.77985 1.52677C4.84373 1.19626 4.89883 0.863237 5.03221 0.550874C5.19565 0.167149 5.46492 -0.0275302 5.7968 0.00314273C6.01597 0.023174 6.19945 0.133972 6.3704 0.26355C6.67849 0.497039 6.94274 0.77873 7.22078 1.0454C7.38234 1.20064 7.55078 1.34587 7.73676 1.47231C7.91961 1.59688 8.09057 1.59062 8.27029 1.46856C8.46065 1.33961 8.6316 1.18749 8.79629 1.02849C9.05867 0.7756 9.30915 0.510185 9.59845 0.286711C9.69739 0.210341 9.80009 0.141484 9.91406 0.0882757C10.3042 -0.0938839 10.6542 0.0100285 10.8778 0.37873C11.0587 0.677321 11.1195 1.01598 11.1877 1.35087C11.2623 1.71644 11.308 2.08828 11.4219 2.44508C11.5403 2.81566 11.6305 2.87701 12.0168 2.88139C12.4145 2.88577 12.8027 2.80189 13.196 2.76621C13.4452 2.74367 13.695 2.72114 13.9424 2.77184C14.4571 2.87701 14.6882 3.24195 14.5811 3.75964C14.4903 4.20033 14.2837 4.5972 14.1102 5.00659C14.0194 5.22067 13.9324 5.43601 13.8666 5.66073C13.7877 5.93053 13.8554 6.13397 14.0839 6.29986C14.3112 6.46511 14.5536 6.60533 14.7953 6.7468C15.0464 6.89391 15.2994 7.03663 15.5286 7.21754C15.5448 7.23069 15.5624 7.24195 15.5786 7.2551C16.1435 7.71895 16.1422 8.28796 15.5736 8.74806C15.253 9.00721 14.8873 9.19563 14.5348 9.40471C14.3782 9.49735 14.2286 9.59939 14.0802 9.70455C13.8554 9.8648 13.7946 10.067 13.8666 10.3305C13.9637 10.688 14.1296 11.016 14.2724 11.3546C14.4089 11.6789 14.5623 11.9981 14.598 12.3549C14.6588 12.9615 14.258 13.2232 13.784 13.2507C13.3281 13.277 12.8822 13.1912 12.4326 13.1399C12.2297 13.1168 12.0275 13.1136 11.8246 13.1268C11.6411 13.1387 11.5378 13.2545 11.4752 13.416C11.3412 13.7615 11.2929 14.1277 11.2209 14.4883C11.1439 14.8739 11.0907 15.2676 10.884 15.6138C10.6586 15.9912 10.3067 16.0958 9.9103 15.9086C9.73434 15.8254 9.58092 15.7096 9.4394 15.5794C9.13319 15.2977 8.83699 15.0035 8.52577 14.7274C8.08242 14.3337 7.9265 14.3412 7.47251 14.7286C7.09992 15.0466 6.78306 15.4241 6.39169 15.7215C6.26708 15.816 6.1362 15.8999 5.98842 15.9524C5.67782 16.0632 5.38601 15.9756 5.18626 15.7108C4.98274 15.4416 4.91449 15.1211 4.8456 14.8019C4.75606 14.3919 4.70909 13.9725 4.58636 13.5693C4.46926 13.1837 4.37408 13.1199 3.97081 13.118C3.746 13.1168 3.52495 13.1468 3.30265 13.1731C2.88999 13.2219 2.4767 13.3058 2.0609 13.2257C1.54491 13.1255 1.31259 12.7562 1.4203 12.2398C1.51736 11.7734 1.74029 11.3559 1.92314 10.9221C2.00767 10.7218 2.0872 10.5202 2.14418 10.3092C2.20931 10.0664 2.14857 9.87356 1.94443 9.71895C1.69082 9.52677 1.41466 9.37278 1.14164 9.21316C0.894917 9.06856 0.647569 8.92521 0.427773 8.74117C0.372042 8.69422 0.317562 8.64539 0.268093 8.59219C-0.0882143 8.21159 -0.086962 7.77904 0.273102 7.40095C0.509179 7.15306 0.804119 6.98593 1.09467 6.81378C1.37584 6.64665 1.66201 6.49015 1.92627 6.29485C2.14794 6.13084 2.21244 5.93178 2.13917 5.66824C2.01832 5.23131 1.80291 4.83382 1.63508 4.41629C1.52863 4.15213 1.42406 3.88796 1.40339 3.59813C1.3677 3.10111 1.6808 2.79688 2.17487 2.75244C2.26254 2.7443 2.35208 2.75119 2.44038 2.75119H2.4385ZM13.5485 12.7512C13.6061 12.7512 13.6631 12.7524 13.7207 12.7512C14.052 12.743 14.1497 12.6166 14.0758 12.2961C14.0269 12.0826 13.9443 11.8817 13.8597 11.6808C13.7013 11.3033 13.5141 10.9377 13.3982 10.5434C13.2304 9.97059 13.3463 9.62004 13.8253 9.26511C13.9925 9.14117 14.171 9.03475 14.3494 8.92834C14.6531 8.74806 14.97 8.58843 15.2436 8.36183C15.5743 8.08827 15.5736 7.91175 15.2424 7.63882C15.0126 7.44978 14.7508 7.30893 14.4953 7.15932C14.2035 6.98843 13.9073 6.82505 13.655 6.59594C13.4264 6.38874 13.2993 6.13773 13.3262 5.82286C13.3394 5.66762 13.3763 5.51613 13.4245 5.36715C13.5673 4.92709 13.789 4.51957 13.9524 4.08828C14.0207 3.90925 14.0895 3.73022 14.0958 3.53366C14.1002 3.39219 14.0388 3.30831 13.9011 3.27638C13.6844 3.2263 13.4659 3.24508 13.2492 3.26637C12.7889 3.31206 12.3331 3.40346 11.8672 3.38155C11.4338 3.36151 11.1502 3.15056 10.9949 2.74806C10.8515 2.37685 10.797 1.98562 10.7212 1.60001C10.668 1.33022 10.6204 1.05917 10.5252 0.800013C10.4031 0.46887 10.266 0.427556 9.98106 0.630373C9.82388 0.742423 9.68048 0.870122 9.54209 1.00533C9.27346 1.26699 9.01233 1.53616 8.71676 1.76903C8.20641 2.1709 7.78749 2.16965 7.27964 1.76715C6.99722 1.54305 6.74549 1.28702 6.48812 1.03663C6.31216 0.866366 6.1362 0.695474 5.92329 0.570905C5.72416 0.453847 5.62898 0.483268 5.5244 0.690467C5.40918 0.920201 5.36285 1.17059 5.3115 1.41973C5.21819 1.87106 5.16685 2.33241 4.99715 2.76621C4.86314 3.10862 4.62393 3.32709 4.2526 3.37216C4.009 3.40158 3.76416 3.38781 3.51994 3.36214C3.09601 3.3177 2.67645 3.22943 2.24688 3.25134C1.9557 3.26574 1.85238 3.39407 1.915 3.67701C1.96446 3.90048 2.05088 4.11206 2.1398 4.32239C2.31514 4.73741 2.52178 5.13867 2.63262 5.58061C2.74158 6.01629 2.62949 6.36684 2.28383 6.65103C1.95194 6.92333 1.56933 7.11363 1.20614 7.33522C0.996988 7.4623 0.786585 7.58749 0.620016 7.7709C0.467224 7.93929 0.468476 8.06699 0.621895 8.23538C0.781576 8.41128 0.981959 8.53334 1.18172 8.65478C1.51423 8.8576 1.86302 9.0335 2.17549 9.26824C2.43098 9.46042 2.64577 9.68201 2.67207 10.0251C2.68772 10.231 2.64139 10.4282 2.57939 10.6216C2.43599 11.0667 2.21307 11.4792 2.04587 11.9149C1.97699 12.0939 1.90811 12.2729 1.90247 12.4695C1.89871 12.611 1.96008 12.6961 2.09785 12.7261C2.31952 12.7756 2.54307 12.7568 2.76537 12.7343C3.21498 12.6892 3.66084 12.6016 4.11671 12.6197C4.56319 12.6373 4.85437 12.852 5.00967 13.2695C5.16684 13.6914 5.22007 14.1352 5.31024 14.5715C5.35971 14.8107 5.40605 15.0504 5.50562 15.2745C5.6152 15.5224 5.72479 15.5549 5.95335 15.4135C6.02787 15.3671 6.10239 15.3164 6.16688 15.257C6.48061 14.9678 6.78807 14.6711 7.10368 14.3837C7.76807 13.7803 8.23334 13.7809 8.89961 14.3856C9.12692 14.5922 9.34547 14.8081 9.56777 15.021C9.72557 15.1725 9.88588 15.3215 10.0756 15.4329C10.2747 15.5499 10.3706 15.5205 10.4745 15.3133C10.5897 15.0836 10.6367 14.8332 10.688 14.584C10.7813 14.1327 10.8321 13.6714 11.0024 13.2376C11.1364 12.8952 11.375 12.6767 11.7469 12.6316C11.9905 12.6022 12.2354 12.616 12.4796 12.6416C12.8365 12.6798 13.1897 12.7468 13.5498 12.7531L13.5485 12.7512Z" fill="#191A1A"/>
<path id="Vector_2" d="M13.5484 12.7512C13.1884 12.7455 12.8352 12.6779 12.4782 12.6397C12.234 12.6141 11.9892 12.6003 11.7456 12.6297C11.3743 12.6748 11.1357 12.8933 11.001 13.2357C10.8313 13.6695 10.7806 14.1308 10.6867 14.5822C10.6353 14.8307 10.5884 15.0817 10.4732 15.3114C10.3692 15.5186 10.274 15.548 10.0743 15.431C9.88453 15.3196 9.72423 15.1706 9.56642 15.0191C9.34412 14.8069 9.12621 14.5903 8.89827 14.3837C8.232 13.7797 7.76673 13.779 7.10233 14.3818C6.7861 14.6685 6.47926 14.9659 6.16554 15.2551C6.10104 15.3146 6.02715 15.3653 5.95201 15.4116C5.72344 15.553 5.61386 15.5211 5.50427 15.2726C5.40533 15.0485 5.35837 14.8088 5.3089 14.5696C5.21873 14.1333 5.16613 13.6889 5.00832 13.2676C4.8524 12.8501 4.56122 12.6354 4.11537 12.6178C3.65949 12.5997 3.21364 12.6873 2.76403 12.7324C2.54173 12.7549 2.31818 12.7737 2.0965 12.7243C1.95874 12.6936 1.89737 12.6091 1.90113 12.4676C1.90676 12.271 1.97564 12.092 2.04453 11.913C2.21172 11.4773 2.43402 11.0648 2.57805 10.6197C2.64067 10.4263 2.68638 10.2291 2.67073 10.0232C2.64442 9.68012 2.43026 9.45853 2.17415 9.26635C1.86168 9.03161 1.51226 8.85571 1.18037 8.65289C0.980615 8.53083 0.779605 8.40876 0.620551 8.23349C0.467758 8.0651 0.466506 7.9374 0.618672 7.76901C0.785241 7.5856 0.99627 7.46103 1.20479 7.33333C1.56799 7.11174 1.95122 6.92144 2.28248 6.64914C2.62814 6.36494 2.74023 6.01377 2.63127 5.57872C2.52044 5.1374 2.31379 4.73552 2.13846 4.3205C2.04954 4.11017 1.96312 3.89859 1.91365 3.67512C1.85103 3.39217 1.95435 3.26385 2.24554 3.24945C2.67511 3.22817 3.09529 3.3158 3.5186 3.36025C3.76282 3.38591 4.00766 3.39969 4.25125 3.37026C4.62321 3.32519 4.86179 3.10735 4.9958 2.76432C5.1655 2.33052 5.21685 1.86917 5.31015 1.41784C5.3615 1.16933 5.40784 0.918309 5.52306 0.688575C5.62701 0.481376 5.72282 0.451955 5.92195 0.569013C6.13423 0.693583 6.31082 0.864475 6.48678 1.03474C6.74415 1.28513 6.99588 1.54116 7.27829 1.76526C7.78552 2.16776 8.20507 2.16901 8.71542 1.76714C9.01036 1.53427 9.27211 1.2651 9.54075 1.00344C9.67914 0.868857 9.82254 0.740531 9.97971 0.628481C10.2646 0.425038 10.4018 0.466353 10.5239 0.798121C10.6191 1.05665 10.6667 1.32832 10.7199 1.59812C10.7963 1.98435 10.8501 2.37496 10.9935 2.74616C11.1488 3.14867 11.4325 3.35962 11.8658 3.37965C12.3323 3.40094 12.7882 3.31017 13.2478 3.26447C13.4651 3.24319 13.6831 3.22441 13.8997 3.27449C14.0375 3.30642 14.0988 3.3903 14.0945 3.53177C14.0882 3.7277 14.0187 3.90735 13.9511 4.08638C13.787 4.51768 13.566 4.92519 13.4232 5.36526C13.375 5.51424 13.338 5.6651 13.3249 5.82097C13.2979 6.13584 13.4251 6.38685 13.6536 6.59405C13.906 6.82316 14.2022 6.98654 14.494 7.15743C14.7495 7.30704 15.0112 7.44789 15.241 7.63693C15.5723 7.90986 15.5723 8.08701 15.2423 8.35994C14.9686 8.58654 14.6512 8.74617 14.3481 8.92645C14.169 9.03286 13.9911 9.13928 13.8239 9.26322C13.3449 9.61815 13.2284 9.96933 13.3969 10.5415C13.5127 10.9365 13.7 11.302 13.8584 11.6789C13.9429 11.8798 14.025 12.0807 14.0744 12.2942C14.1483 12.6147 14.0506 12.7418 13.7194 12.7493C13.6624 12.7505 13.6048 12.7493 13.5472 12.7493L13.5484 12.7512ZM2.98946 7.99875C2.99071 10.7649 5.21935 13.0009 7.98026 13.0053C10.7668 13.0097 13.0068 10.7718 13.0043 7.98435C13.0017 5.22629 10.7612 2.9928 7.99842 2.99468C5.22374 2.99656 2.98883 5.22942 2.98946 7.99875Z" fill="#FDE53F"/>
<path id="Vector_3" d="M2.9895 7.99876C2.98825 5.22943 5.22378 2.99657 7.99847 2.99469C10.7613 2.99281 13.0018 5.2263 13.0043 7.98436C13.0068 10.7712 10.7669 13.0097 7.98031 13.0053C5.2194 13.0009 2.99075 10.765 2.9895 7.99876ZM3.4961 7.9925C3.49234 10.4776 5.49492 12.4952 7.97029 12.5002C10.4682 12.5058 12.4958 10.5052 12.5002 8.03068C12.5046 5.51801 10.5089 3.50799 8.00034 3.49923C5.51621 3.49047 3.49985 5.50173 3.4961 7.99187V7.9925Z" fill="#191A1A"/>
<path id="Vector_4" d="M3.4961 7.99249C3.49986 5.50235 5.51559 3.49108 8.00035 3.49985C10.5089 3.50861 12.5046 5.518 12.5002 8.0313C12.4958 10.5058 10.4688 12.5058 7.97029 12.5008C5.49492 12.4952 3.49234 10.4776 3.4961 7.99312V7.99249Z" fill="#FCFCFC"/>
</g>
<defs>
<clipPath id="clip0_1_573">
<rect width="16" height="16" fill="white"/>
</clipPath>
</defs>
</svg>
