<svg width="33" height="33" viewBox="0 0 33 33" fill="none" xmlns="http://www.w3.org/2000/svg">
<g clip-path="url(#clip0_413_962)">
<path d="M22.58 19.7798L22.64 21.2998C22.64 21.2998 22.55 21.2998 22.51 21.3098C22.01 21.3798 21.51 21.4898 21 21.5598C20.57 21.6298 20.31 21.8498 20.16 22.2798C19.95 22.8598 19.71 23.4398 19.44 23.9998C19.25 24.3998 19.25 24.7498 19.51 25.0998C19.81 25.5098 20.1 25.9198 20.38 26.3298C20.57 26.6198 20.55 26.8398 20.31 27.0798C20.02 27.3798 19.72 27.6798 19.43 27.9698C19.14 28.2498 18.95 28.2698 18.63 28.0398C18.21 27.7598 17.79 27.4598 17.38 27.1698C17.06 26.9398 16.74 26.9398 16.38 27.0998C15.78 27.3598 15.18 27.6198 14.57 27.8498C14.2 27.9798 13.97 28.1998 13.91 28.5898C13.82 29.0998 13.72 29.6098 13.62 30.1198C13.54 30.5098 13.4 30.6198 13 30.6298H11.78C11.42 30.6198 11.24 30.4798 11.18 30.1298C11.09 29.6498 11 29.1698 10.93 28.6898C10.86 28.2498 10.63 27.9898 10.21 27.8398C9.62001 27.6198 9.03001 27.3798 8.46001 27.1098C8.07001 26.9298 7.73001 26.9498 7.39001 27.1998C6.99001 27.4898 6.59001 27.7698 6.19001 28.0398C5.86001 28.2598 5.67001 28.2498 5.39001 27.9798C5.09001 27.6998 4.81001 27.4098 4.53001 27.1198C4.24001 26.8198 4.23001 26.6298 4.47001 26.2898C4.74001 25.8898 5.02001 25.4898 5.31001 25.0898C5.55001 24.7498 5.56001 24.4198 5.38001 24.0398C5.12001 23.4498 4.87001 22.8598 4.65001 22.2598C4.50001 21.8398 4.24001 21.6298 3.82001 21.5698C3.32001 21.4898 2.83001 21.3998 2.34001 21.3098C2.03001 21.2598 1.87001 21.0698 1.87001 20.7498C1.86001 20.3198 1.87001 19.8798 1.87001 19.4398C1.87001 19.1298 2.02001 18.9298 2.33001 18.8798C2.80001 18.7898 3.27001 18.6998 3.75001 18.6298C4.23001 18.5598 4.52001 18.3198 4.68001 17.8498C4.87001 17.2798 5.11001 16.7198 5.37001 16.1798C5.56001 15.7898 5.56001 15.4298 5.30001 15.0698C5.00001 14.6698 4.72001 14.2598 4.44001 13.8498C4.24001 13.5598 4.25001 13.3498 4.50001 13.0998C4.78001 12.8098 5.07001 12.5198 5.36001 12.2398C5.67001 11.9398 5.87001 11.9198 6.22001 12.1598C6.63001 12.4498 7.05001 12.7398 7.47001 13.0298C7.77001 13.2498 8.07001 13.2498 8.41001 13.0998C9.03001 12.8298 9.67001 12.5698 10.3 12.3198C10.59 12.1998 10.82 12.0298 10.88 11.7098C10.99 11.0998 11.11 10.4898 11.2 9.86977C11.2 9.83977 11.2 9.80977 11.2 9.78977L12.71 9.75977C12.73 10.0798 12.72 10.3898 12.73 10.7098C12.73 11.1598 12.93 11.5298 13.22 11.8598C13.66 12.3298 14.25 12.4098 14.83 12.5198C14.94 12.5398 15.08 12.5998 15.13 12.6898C15.39 13.1298 15.55 13.5898 15.07 14.0098C14.99 14.0798 14.94 14.1998 14.88 14.2998C14.49 14.9898 14.55 15.7898 15.07 16.3898C15.4 16.7698 15.76 17.1298 16.15 17.4598C16.64 17.8698 17.22 17.9798 17.82 17.7598C18.15 17.6298 18.46 17.4298 18.76 17.2198C18.96 17.0698 19.12 17.0798 19.35 17.1498C19.84 17.2798 20.05 17.5698 20.05 18.0498C20.05 18.2098 20.11 18.3598 20.16 18.5098C20.39 19.2198 21.03 19.7298 21.78 19.7598C22.04 19.7698 22.3 19.7798 22.57 19.7798H22.58ZM17.84 20.1298C17.84 19.7598 17.66 19.4998 17.33 19.3398C17.07 19.2098 16.69 19.2898 16.46 19.4998C16.22 19.7398 16.21 20.0598 16.19 20.3698C16.02 22.6298 13.97 24.2198 11.74 23.8198C10.08 23.5298 8.77001 22.1298 8.62001 20.4898C8.46001 18.7498 9.42001 17.1498 11.02 16.5598C11.49 16.3898 12.01 16.3498 12.51 16.2698C13.12 16.1698 13.41 15.5198 13.06 15.0098C12.81 14.6498 12.45 14.6598 12.06 14.6798C9.01001 14.8398 6.55001 17.6598 7.05001 20.8798C7.46001 23.5798 9.70001 25.5098 12.41 25.5298C12.68 25.4998 12.95 25.4798 13.21 25.4398C15.85 25.0498 17.84 22.7698 17.84 20.1298Z" fill="#FEF08B"/>
<path d="M32.23 9.48988C32.24 9.87988 32.24 10.2599 32.23 10.6499C32.21 11.4399 31.69 12.1099 30.94 12.3399C30.79 12.3799 30.64 12.4399 30.48 12.4399C30.02 12.4399 29.76 12.6599 29.61 13.0999C29.53 13.3699 29.54 13.5499 29.71 13.7699C30.04 14.1899 30.33 14.6299 30.31 15.1599C30.32 15.6799 30.16 16.0999 29.83 16.4499C29.54 16.7499 29.25 17.0499 28.95 17.3299C28.29 17.9499 27.45 18.0299 26.68 17.5599C26.57 17.4999 26.44 17.4299 26.35 17.3299C26.06 17.0499 25.78 17.0599 25.4 17.2199C25.07 17.3599 24.96 17.5599 24.92 17.8799C24.85 18.5099 24.66 19.0899 24.08 19.4299C23.81 19.5899 23.48 19.7099 23.16 19.7499C22.97 19.7699 22.77 19.7799 22.58 19.7799C22.31 19.7799 22.05 19.7699 21.79 19.7599C21.04 19.7299 20.4 19.2199 20.17 18.5099C20.12 18.3599 20.06 18.2099 20.06 18.0499C20.06 17.5699 19.85 17.2799 19.36 17.1499C19.13 17.0799 18.97 17.0699 18.77 17.2199C18.47 17.4299 18.16 17.6299 17.83 17.7599C17.23 17.9799 16.65 17.8699 16.16 17.4599C15.77 17.1299 15.41 16.7699 15.08 16.3899C14.56 15.7899 14.5 14.9899 14.89 14.2999C14.95 14.1999 15 14.0799 15.08 14.0099C15.56 13.5899 15.4 13.1299 15.14 12.6899C15.09 12.5999 14.95 12.5399 14.84 12.5199C14.26 12.4099 13.67 12.3299 13.23 11.8599C12.94 11.5299 12.75 11.1599 12.74 10.7099C12.73 10.3899 12.74 10.0799 12.72 9.75988V9.71988C12.65 8.56988 13.31 7.75988 14.49 7.58988C14.7 7.55988 14.97 7.56988 15.08 7.43988C15.25 7.23988 15.33 6.94988 15.41 6.67988C15.44 6.59988 15.36 6.44988 15.29 6.35988C15.03 5.95988 14.72 5.58988 14.66 5.08988C14.59 4.53988 14.72 4.04988 15.08 3.64988C15.4 3.28988 15.74 2.94988 16.1 2.62988C16.65 2.12988 17.51 2.04988 18.16 2.40988C18.29 2.48988 18.42 2.54988 18.52 2.64988C18.87 3.01988 19.23 3.00988 19.65 2.77988C19.85 2.65988 19.97 2.56988 20 2.32988C20.05 1.96988 20.13 1.60988 20.28 1.27988C20.54 0.699883 21.04 0.359883 21.66 0.299883C22.2 0.239883 22.75 0.239883 23.29 0.299883C24.18 0.389883 24.75 1.04988 24.92 2.07988C24.95 2.26988 24.94 2.52988 25.06 2.62988C25.28 2.79988 25.58 2.87988 25.85 2.97988C25.9 2.99988 26 2.93988 26.07 2.89988C26.28 2.75988 26.49 2.58988 26.71 2.45988C27.42 2.03988 28.26 2.09988 28.88 2.64988C29.22 2.94988 29.53 3.26988 29.83 3.59988C30.4 4.23988 30.47 5.08988 30.03 5.81988C29.98 5.88988 29.94 5.96988 29.88 6.02988C29.48 6.39988 29.48 6.80988 29.75 7.25988C29.85 7.41988 29.92 7.51988 30.11 7.53988C30.31 7.54988 30.5 7.59988 30.7 7.63988C31.62 7.82988 32.22 8.54988 32.23 9.48988ZM30.61 9.60988C30.62 9.34988 30.49 9.24988 30.27 9.20988C29.91 9.14988 29.55 9.07988 29.19 9.02988C28.8 8.96988 28.56 8.75988 28.43 8.38988C28.25 7.91988 28.06 7.43988 27.85 6.97988C27.68 6.61988 27.7 6.30988 27.92 5.98988C28.15 5.66988 28.36 5.35988 28.59 5.03988C28.7 4.87988 28.7 4.73988 28.55 4.59988C28.33 4.38988 28.12 4.17988 27.91 3.95988C27.76 3.80988 27.62 3.78988 27.44 3.91988C27.13 4.13988 26.82 4.35988 26.5 4.57988C26.19 4.79988 25.88 4.81988 25.53 4.65988C25.06 4.44988 24.58 4.25988 24.1 4.06988C23.74 3.92988 23.54 3.69988 23.48 3.31988C23.42 2.95988 23.35 2.60988 23.29 2.24988C23.26 2.00988 23.15 1.87988 22.88 1.88988C22.59 1.90988 22.3 1.88988 22.01 1.88988C21.8 1.88988 21.7 1.98988 21.67 2.18988C21.61 2.55988 21.54 2.91988 21.48 3.28988C21.42 3.67988 21.22 3.92988 20.85 4.06988C20.37 4.25988 19.89 4.44988 19.41 4.65988C19.07 4.81988 18.76 4.79988 18.45 4.57988C18.14 4.35988 17.82 4.13988 17.51 3.91988C17.33 3.78988 17.18 3.80988 17.04 3.95988C16.84 4.16988 16.63 4.36988 16.42 4.57988C16.25 4.72988 16.24 4.88988 16.37 5.06988C16.59 5.36988 16.81 5.67988 17.01 5.98988C17.12 6.14988 17.18 6.33988 17.25 6.48988H17.26C17.21 6.63988 17.19 6.74988 17.15 6.85988C16.93 7.40988 16.7 7.94988 16.48 8.49988C16.35 8.78988 16.13 8.94988 15.82 9.00988C15.45 9.07988 15.09 9.14988 14.71 9.19988C14.45 9.23988 14.33 9.34988 14.35 9.62988C14.37 9.90988 14.36 10.1899 14.35 10.4799C14.34 10.6899 14.44 10.7999 14.65 10.8299C15.01 10.8799 15.37 10.9599 15.72 11.0099C16.12 11.0699 16.38 11.2799 16.52 11.6599C16.7 12.1299 16.9 12.5999 17.11 13.0599C17.28 13.4199 17.25 13.7499 17.02 14.0599C16.81 14.3699 16.59 14.6699 16.38 14.9799C16.24 15.1599 16.25 15.3099 16.42 15.4699C16.63 15.6599 16.83 15.8599 17.02 16.0699C17.18 16.2499 17.34 16.2599 17.53 16.1099C17.83 15.8999 18.13 15.6899 18.42 15.4799C18.74 15.2599 19.06 15.2199 19.42 15.3899C19.88 15.5999 20.35 15.7899 20.82 15.9699C21.22 16.1199 21.43 16.3799 21.49 16.7899C21.54 17.1399 21.62 17.4899 21.67 17.8299C21.7 18.0699 21.82 18.1599 22.04 18.1499C22.33 18.1399 22.63 18.1399 22.92 18.1499C23.15 18.1599 23.25 18.0399 23.29 17.8299C23.35 17.4699 23.43 17.1099 23.47 16.7599C23.53 16.3499 23.76 16.1099 24.13 15.9699C24.59 15.7899 25.06 15.5999 25.51 15.3999C25.87 15.2199 26.2 15.2499 26.53 15.4899C26.83 15.7099 27.14 15.9199 27.45 16.1299C27.62 16.2599 27.77 16.2499 27.91 16.0899C28.12 15.8699 28.34 15.6599 28.55 15.4499C28.69 15.3099 28.7 15.1699 28.59 15.0099C28.36 14.6999 28.15 14.3799 27.92 14.0599C27.69 13.7499 27.68 13.4299 27.85 13.0699C28.05 12.6199 28.25 12.1599 28.42 11.6899C28.57 11.2899 28.84 11.0699 29.26 11.0199C29.61 10.9699 29.95 10.8899 30.3 10.8299C30.51 10.7999 30.61 10.6999 30.61 10.4799C30.6 10.1899 30.6 9.89988 30.61 9.60988Z" fill="#585A59"/>
<path d="M30.27 9.21019C30.49 9.25019 30.62 9.35019 30.61 9.61019C30.6 9.90019 30.6 10.1902 30.61 10.4802C30.61 10.7002 30.51 10.8002 30.3 10.8302C29.95 10.8902 29.61 10.9702 29.26 11.0202C28.84 11.0702 28.57 11.2902 28.42 11.6902C28.25 12.1602 28.05 12.6202 27.85 13.0702C27.68 13.4302 27.69 13.7502 27.92 14.0602C28.15 14.3802 28.36 14.7002 28.59 15.0102C28.7 15.1702 28.69 15.3102 28.55 15.4502C28.34 15.6602 28.12 15.8702 27.91 16.0902C27.77 16.2502 27.62 16.2602 27.45 16.1302C27.14 15.9202 26.83 15.7102 26.53 15.4902C26.2 15.2502 25.87 15.2202 25.51 15.4002C25.06 15.6002 24.59 15.7902 24.13 15.9702C23.76 16.1102 23.53 16.3502 23.47 16.7602C23.43 17.1102 23.35 17.4702 23.29 17.8302C23.25 18.0402 23.15 18.1602 22.92 18.1502C22.63 18.1402 22.33 18.1402 22.04 18.1502C21.82 18.1602 21.7 18.0702 21.67 17.8302C21.62 17.4902 21.54 17.1402 21.49 16.7902C21.43 16.3802 21.22 16.1202 20.82 15.9702C20.35 15.7902 19.88 15.6002 19.42 15.3902C19.06 15.2202 18.74 15.2602 18.42 15.4802C18.13 15.6902 17.83 15.9002 17.53 16.1102C17.34 16.2602 17.18 16.2502 17.02 16.0702C16.83 15.8602 16.63 15.6602 16.42 15.4702C16.25 15.3102 16.24 15.1602 16.38 14.9802C16.59 14.6702 16.81 14.3702 17.02 14.0602C17.25 13.7502 17.28 13.4202 17.11 13.0602C16.9 12.6002 16.7 12.1302 16.52 11.6602C16.38 11.2802 16.12 11.0702 15.72 11.0102C15.37 10.9602 15.01 10.8802 14.65 10.8302C14.44 10.8002 14.34 10.6902 14.35 10.4802C14.36 10.1902 14.37 9.91019 14.35 9.63019C14.33 9.35019 14.45 9.24019 14.71 9.20019C15.09 9.15019 15.45 9.08019 15.82 9.01019C16.13 8.95019 16.35 8.79019 16.48 8.50019C16.7 7.95019 16.93 7.41019 17.15 6.86019C17.19 6.75019 17.21 6.64019 17.26 6.49019H17.25C17.18 6.34019 17.12 6.15019 17.01 5.99019C16.81 5.68019 16.59 5.37019 16.37 5.07019C16.24 4.89019 16.25 4.73019 16.42 4.58019C16.63 4.37019 16.84 4.17019 17.04 3.96019C17.18 3.81019 17.33 3.79019 17.51 3.92019C17.82 4.14019 18.14 4.36019 18.45 4.58019C18.76 4.80019 19.07 4.82019 19.41 4.66019C19.89 4.45019 20.37 4.26019 20.85 4.07019C21.22 3.93019 21.42 3.68019 21.48 3.29019C21.54 2.92019 21.61 2.56019 21.67 2.19019C21.7 1.99019 21.8 1.89019 22.01 1.89019C22.3 1.89019 22.59 1.91019 22.88 1.89019C23.15 1.88019 23.26 2.01019 23.29 2.25019C23.35 2.61019 23.42 2.96019 23.48 3.32019C23.54 3.70019 23.74 3.93019 24.1 4.07019C24.58 4.26019 25.06 4.45019 25.53 4.66019C25.88 4.82019 26.19 4.80019 26.5 4.58019C26.82 4.36019 27.13 4.14019 27.44 3.92019C27.62 3.79019 27.76 3.81019 27.91 3.96019C28.12 4.18019 28.33 4.39019 28.55 4.60019C28.7 4.74019 28.7 4.88019 28.59 5.04019C28.36 5.36019 28.15 5.67019 27.92 5.99019C27.7 6.31019 27.68 6.62019 27.85 6.98019C28.06 7.44019 28.25 7.92019 28.43 8.39019C28.56 8.76019 28.8 8.97019 29.19 9.03019C29.55 9.08019 29.91 9.15019 30.27 9.21019ZM26.36 10.0502C26.37 7.91019 24.63 6.15019 22.5 6.14019C20.36 6.13019 18.62 7.85019 18.61 9.99019C18.59 12.1402 20.3 13.8802 22.46 13.8902C24.6 13.8902 26.35 12.1802 26.36 10.0502Z" fill="#FEF08B"/>
<path d="M22.5 6.14018C24.63 6.14018 26.37 7.91018 26.36 10.0502C26.35 12.1802 24.6 13.9002 22.46 13.8902C20.3 13.8802 18.59 12.1402 18.61 9.99018C18.62 7.85018 20.36 6.13018 22.5 6.14018ZM22.48 12.2602C23.73 12.2502 24.75 11.2402 24.73 10.0102C24.73 8.77018 23.69 7.75018 22.45 7.76018C21.24 7.76018 20.24 8.78018 20.23 10.0002C20.23 11.2602 21.21 12.2502 22.47 12.2602H22.48Z" fill="#585A59"/>
<path d="M23.48 21.97C23.55 22.41 23.25 22.8 22.76 22.9C22.47 22.97 22.17 23.03 21.87 23.06C21.67 23.08 21.58 23.16 21.52 23.35C21.47 23.51 21.43 23.7 21.33 23.84C21.02 24.28 21.11 24.65 21.45 25.04C21.83 25.48 22.12 25.97 22.13 26.58C22.14 27.15 21.99 27.65 21.6 28.07C21.21 28.48 20.81 28.9 20.38 29.28C19.62 29.94 18.7 29.99 17.84 29.46C17.54 29.27 17.25 29.07 16.97 28.86C16.83 28.74 16.71 28.75 16.55 28.82C16.27 28.96 15.98 29.09 15.69 29.18C15.47 29.25 15.4 29.38 15.37 29.58C15.31 29.94 15.26 30.3 15.17 30.65C14.94 31.59 14.12 32.22 13.15 32.24C12.7 32.25 12.25 32.24 11.8 32.24C10.6 32.24 9.75 31.52 9.56 30.33C9.52 30.1 9.45 29.88 9.45 29.65C9.44 29.37 9.31 29.23 9.04 29.16C8.75 29.07 8.49 28.91 8.21 28.81C8.11 28.78 7.96 28.79 7.88 28.84C7.56 29.04 7.27 29.28 6.95 29.47C6.09 30 5.13 29.92 4.39 29.24C3.99 28.88 3.6 28.5 3.24 28.1C2.57 27.36 2.49 26.41 3 25.56C3.19 25.24 3.43 24.95 3.63 24.63C3.68 24.54 3.71 24.38 3.67 24.28C3.55 23.94 3.42 23.62 3.26 23.3C3.21 23.2 3.09 23.1 2.98 23.07C2.64 22.99 2.29 22.95 1.94 22.87C0.9 22.64 0.26 21.82 0.25 20.75V19.44C0.25 18.3 0.97 17.46 2.09 17.26C2.45 17.2 2.88 17.23 3.14 17.03C3.38 16.85 3.42 16.41 3.59 16.11C3.75 15.82 3.74 15.6 3.52 15.36C3.36 15.19 3.24 14.98 3.11 14.78C2.48 13.85 2.53 12.86 3.28 12.03C3.65 11.62 4.05 11.25 4.46 10.88C4.84 10.53 5.31 10.37 5.89 10.38C6.35 10.36 6.82 10.54 7.2 10.88C7.72 11.34 8.2 11.48 8.88 11.11C9.27 10.9 9.48 10.71 9.5 10.29C9.51 10.06 9.56 9.84004 9.62 9.61004C9.72 9.23004 10.15 8.95004 10.53 9.02004C10.9 9.09004 11.21 9.42004 11.21 9.79004C11.21 9.81004 11.21 9.84004 11.21 9.87004C11.12 10.49 11 11.1 10.89 11.71C10.83 12.03 10.6 12.2 10.31 12.32C9.68 12.57 9.04 12.83 8.42 13.1C8.08 13.25 7.78 13.25 7.48 13.03C7.06 12.74 6.64 12.45 6.23 12.16C5.88 11.92 5.68 11.94 5.37 12.24C5.08 12.52 4.79 12.81 4.51 13.1C4.26 13.35 4.25 13.56 4.45 13.85C4.73 14.26 5.01 14.67 5.31 15.07C5.57 15.43 5.57 15.79 5.38 16.18C5.12 16.72 4.88 17.28 4.69 17.85C4.53 18.32 4.24 18.56 3.76 18.63C3.28 18.7 2.81 18.79 2.34 18.88C2.03 18.93 1.88 19.13 1.88 19.44C1.88 19.88 1.87 20.32 1.88 20.75C1.88 21.07 2.04 21.26 2.35 21.31C2.84 21.4 3.33 21.49 3.83 21.57C4.25 21.63 4.51 21.84 4.66 22.26C4.88 22.86 5.13 23.45 5.39 24.04C5.57 24.42 5.56 24.75 5.32 25.09C5.03 25.49 4.75 25.89 4.48 26.29C4.24 26.63 4.25 26.82 4.54 27.12C4.82 27.41 5.1 27.7 5.4 27.98C5.68 28.25 5.87 28.26 6.2 28.04C6.6 27.77 7 27.49 7.4 27.2C7.74 26.95 8.08 26.93 8.47 27.11C9.04 27.38 9.63 27.62 10.22 27.84C10.64 27.99 10.87 28.25 10.94 28.69C11.01 29.17 11.1 29.65 11.19 30.13C11.25 30.48 11.43 30.62 11.79 30.63H13.01C13.41 30.62 13.55 30.51 13.63 30.12C13.73 29.61 13.83 29.1 13.92 28.59C13.98 28.2 14.21 27.98 14.58 27.85C15.19 27.62 15.79 27.36 16.39 27.1C16.75 26.94 17.07 26.94 17.39 27.17C17.8 27.46 18.22 27.76 18.64 28.04C18.96 28.27 19.15 28.25 19.44 27.97C19.73 27.68 20.03 27.38 20.32 27.08C20.56 26.84 20.58 26.62 20.39 26.33C20.11 25.92 19.82 25.51 19.52 25.1C19.26 24.75 19.26 24.4 19.45 24C19.72 23.44 19.96 22.86 20.17 22.28C20.32 21.85 20.58 21.63 21.01 21.56C21.52 21.49 22.02 21.38 22.52 21.31C22.56 21.3 22.61 21.3 22.65 21.3C23.09 21.3 23.44 21.58 23.49 21.97H23.48Z" fill="#585A59"/>
<path d="M17.33 19.3398C17.66 19.4998 17.84 19.7598 17.84 20.1298C17.84 22.7698 15.85 25.0498 13.21 25.4398C12.95 25.4798 12.68 25.4998 12.41 25.5198C9.69999 25.5098 7.45999 23.5798 7.04999 20.8798C6.54999 17.6598 9.00999 14.8398 12.06 14.6798C12.45 14.6598 12.81 14.6498 13.06 15.0098C13.41 15.5198 13.12 16.1698 12.51 16.2698C12.01 16.3498 11.49 16.3898 11.02 16.5598C9.41999 17.1498 8.45999 18.7498 8.61999 20.4898C8.76999 22.1298 10.08 23.5298 11.74 23.8198C13.97 24.2198 16.02 22.6298 16.19 20.3698C16.21 20.0598 16.22 19.7398 16.46 19.4998C16.69 19.2898 17.07 19.2098 17.33 19.3398Z" fill="#585A59"/>
</g>
<defs>
<clipPath id="clip0_413_962">
<rect width="32.49" height="32.49" fill="white"/>
</clipPath>
</defs>
</svg>
