<svg width="15" height="18" viewBox="0 0 15 18" fill="none" xmlns="http://www.w3.org/2000/svg">
<path d="M7.74255 10.8843C7.74987 11.6364 7.74621 12.3921 7.74621 13.1442V13.7284C7.74255 15.1267 7.73889 16.5287 7.73523 17.927V17.9708C7.11676 17.9562 6.50195 17.9672 5.88348 17.9928C5.83957 17.9928 5.79565 17.9964 5.75173 18.0001C5.74808 16.6054 5.74808 15.2143 5.75173 13.8233C5.75905 13.8014 5.75905 13.7758 5.75905 13.7466C5.75905 11.4429 5.75905 9.13907 5.75905 6.83164C5.75905 6.72941 5.72612 6.65639 5.64927 6.58702C5.22476 6.21462 4.80756 5.83492 4.38671 5.46251C4.17445 5.27266 4.13786 5.08281 4.28058 4.91121C4.43428 4.72866 4.6319 4.73231 4.85148 4.92947C5.33088 5.35298 5.80297 5.7765 6.28238 6.19636C6.41412 6.3132 6.46901 6.44828 6.46901 6.62353C6.46535 7.30262 6.46901 7.9817 6.46901 8.66079V13.7758C6.46901 13.8452 6.42876 13.9511 6.50561 13.9766C6.66297 14.0314 6.82765 13.973 6.98136 13.9328C7.08382 13.9073 7.03259 13.7831 7.03259 13.7028C7.03625 11.7057 7.03625 9.70863 7.02893 7.71153C7.02893 7.48152 7.09846 7.31722 7.26314 7.15658C7.81208 6.62718 8.34638 6.08318 8.88434 5.54284C9.01608 5.41505 9.14051 5.27996 9.27591 5.15948C9.4223 5.0317 9.58698 5.039 9.73702 5.15948C9.88341 5.27631 9.9017 5.46982 9.78826 5.63046C9.74068 5.69253 9.68213 5.75094 9.62358 5.80571C9.04902 6.38257 8.47813 6.95942 7.89625 7.52898C7.7828 7.64216 7.73523 7.75534 7.74255 7.91234C7.75353 8.24093 7.74621 8.56952 7.74621 8.89811V9.65021C7.77549 9.67212 7.80476 9.69037 7.8377 9.71228C8.12315 9.39829 8.40127 9.077 8.6977 8.77762C8.91362 8.56221 9.19906 8.62428 9.30519 8.8835C9.37106 9.05145 9.29787 9.17923 9.18077 9.29241C8.74894 9.71228 8.32076 10.1321 7.88161 10.5447C7.77549 10.6433 7.74255 10.7455 7.74255 10.8843Z" fill="#575959"/>
<path d="M7.81322 9.04397C7.81322 8.72994 7.8202 8.41591 7.80973 8.10189C7.80276 7.95185 7.84812 7.84368 7.95628 7.73552C8.51106 7.19121 9.05538 6.63991 9.60318 6.08862C9.65901 6.03628 9.71483 5.98045 9.76019 5.92114C9.86836 5.76761 9.85091 5.58269 9.71135 5.47103C9.56829 5.35589 9.41127 5.34891 9.27171 5.47103C9.14261 5.58618 9.02397 5.71528 8.89836 5.8374C8.38545 6.3538 7.87603 6.87369 7.35265 7.37962C7.19564 7.53315 7.12934 7.69016 7.12934 7.90998C7.13632 9.81857 7.13632 11.7272 7.13283 13.6357C7.13283 13.7125 7.18168 13.8311 7.08398 13.8556C6.93744 13.8939 6.78042 13.9498 6.63039 13.8974C6.55711 13.873 6.59549 13.7718 6.59549 13.7055V8.81717C6.59549 8.16818 6.59201 7.51919 6.59549 6.8702C6.59549 6.70272 6.54316 6.57362 6.41755 6.46196C5.96046 6.06071 5.51036 5.65596 5.05327 5.25121C4.84392 5.0628 4.6555 5.05931 4.50896 5.23377C4.37288 5.39776 4.40777 5.5792 4.61014 5.76064C5.0114 6.11653 5.40917 6.47941 5.81392 6.83531C5.88719 6.9016 5.91859 6.97139 5.91859 7.06908C5.91859 9.27426 5.91859 11.4759 5.91859 13.6776C5.91859 13.7055 5.91859 13.73 5.91161 13.7474C5.90114 13.8102 5.85927 13.8172 5.76507 13.7893C5.36381 13.6706 5.00093 13.4857 4.68342 13.217C4.53338 13.0914 4.38683 13.067 4.20191 13.1298C2.73296 13.6392 1.30239 12.7809 1.06861 11.2526C0.932532 10.3559 1.44544 9.37544 2.28285 8.92882C2.68062 8.71947 2.70853 8.56944 2.42591 8.21703C1.33379 6.86671 1.81181 4.84996 3.3959 4.15212C3.6541 4.04046 3.7518 3.8974 3.7518 3.61827C3.73784 2.30982 4.7532 1.19677 6.04769 1.02231C7.40499 0.84087 8.76926 1.78295 8.99257 3.23795C9.03095 3.48568 9.18448 3.60431 9.42872 3.57989C10.8488 3.45079 12.255 4.46614 12.5969 5.87927C12.7539 6.53524 12.7155 7.17725 12.4573 7.8053C12.3422 8.08793 12.3701 8.17516 12.6004 8.36009C13.6402 9.18703 14.0693 10.2582 13.7588 11.5492C13.4483 12.8263 12.5864 13.6043 11.2954 13.8521C10.479 14.0091 9.71483 13.8137 9.02746 13.3427C8.73437 13.1403 8.68203 13.1403 8.39592 13.3427C8.22146 13.4648 8.04002 13.5834 7.81322 13.6602V13.1019C7.81322 12.3831 7.81671 11.6609 7.80973 10.9421C7.80973 10.8095 7.84114 10.7118 7.94232 10.6176C8.36103 10.2233 8.76926 9.82206 9.18099 9.4208C9.29264 9.31264 9.36243 9.19051 9.29962 9.03001C9.19843 8.78228 8.92628 8.72296 8.72041 8.92882C8.43779 9.21494 8.17261 9.52199 7.90045 9.82206C7.86905 9.80112 7.84114 9.78368 7.81322 9.76274V9.04397Z" fill="#58B848"/>
<path d="M5.87479 17.8018V17.7773C5.8713 16.4416 5.8713 15.1095 5.87479 13.7773" stroke="#191A1A" stroke-width="0.5" stroke-miterlimit="10"/>
<path d="M7.78043 13.6865C7.77693 15.0257 7.77343 16.3683 7.76994 17.7075" stroke="#191A1A" stroke-width="0.5" stroke-miterlimit="10"/>
<path d="M7.78049 13.6865C8.00776 13.6096 8.18957 13.4907 8.3644 13.3683C8.65111 13.1655 8.70355 13.1655 8.99726 13.3683C9.68606 13.8404 10.4518 14.0362 11.27 13.8788C12.5636 13.6306 13.4273 12.8509 13.7385 11.5712C14.0496 10.2775 13.6196 9.20406 12.5776 8.3754C12.3469 8.19009 12.3189 8.10268 12.4343 7.81947C12.693 7.1901 12.7315 6.54676 12.5741 5.88942C12.2315 4.47336 10.8224 3.45589 9.39935 3.58526C9.1546 3.60973 9.00075 3.49085 8.96229 3.2426C8.73852 1.78458 7.3714 0.840539 6.01128 1.02235C4.71409 1.19718 3.69662 2.31255 3.71061 3.62372C3.71061 3.90343 3.61271 4.04679 3.35397 4.15868C1.76658 4.85797 1.28756 6.87892 2.38196 8.23205C2.66517 8.58519 2.6372 8.73554 2.2386 8.94533C1.39945 9.39287 0.885472 10.3754 1.02183 11.274C1.2561 12.8054 2.68964 13.6655 4.16165 13.1551C4.34697 13.0921 4.49382 13.1166 4.64416 13.2425C4.96234 13.5117 5.32597 13.697 5.72807 13.8159C5.82247 13.8439 5.86443 13.8369 5.87492 13.7774C5.88191 13.7565 5.88191 13.732 5.88191 13.704C5.88191 11.4977 5.88191 9.29148 5.88191 7.08171C5.88191 6.98381 5.85044 6.91388 5.77702 6.84745C5.37143 6.49081 4.97283 6.12718 4.57074 5.77054C4.36794 5.58873 4.33298 5.40691 4.46934 5.24258C4.61619 5.06776 4.805 5.07125 5.01479 5.26006C5.47283 5.66565 5.92387 6.07124 6.3819 6.47333C6.50778 6.58522 6.56022 6.71459 6.56022 6.88242C6.55673 7.53276 6.56022 8.1831 6.56022 8.83344V13.732C6.56022 13.7984 6.52176 13.8998 6.59519 13.9243C6.74554 13.9767 6.90288 13.9208 7.04973 13.8823C7.14763 13.8578 7.09868 13.739 7.09868 13.662C7.10217 11.7495 7.10217 9.83692 7.09518 7.92436C7.09518 7.70408 7.16161 7.54674 7.31896 7.3929C7.84342 6.88591 8.35391 6.36494 8.86789 5.84746C8.99376 5.72509 9.11264 5.59572 9.24201 5.48034C9.38186 5.35796 9.53921 5.36495 9.68256 5.48034C9.82242 5.59222 9.8399 5.77754 9.73151 5.93138C9.68606 5.99082 9.63011 6.04676 9.57417 6.09921C9.02523 6.65165 8.47978 7.20409 7.92384 7.74954C7.81545 7.85793 7.77 7.96632 7.77699 8.11667C7.78748 8.43135 7.78049 8.74603 7.78049 9.06071V9.78098C7.80846 9.80196 7.83643 9.81944 7.8679 9.84042C8.14062 9.53972 8.40635 9.23204 8.68957 8.94533C8.89586 8.73904 9.16858 8.79848 9.26998 9.04672C9.33291 9.20756 9.26299 9.32994 9.1511 9.43833C8.73852 9.84042 8.32943 10.2425 7.90986 10.6376C7.80846 10.732 7.77699 10.8299 7.77699 10.9628C7.78398 11.6831 7.78049 12.4068 7.78049 13.1271V13.6865Z" stroke="#191A1A" stroke-width="0.5" stroke-miterlimit="10"/>
</svg>
