<svg width="16" height="18" viewBox="0 0 16 18" fill="none" xmlns="http://www.w3.org/2000/svg">
<path d="M5.78434 11.1297C5.78434 11.792 5.78434 12.4543 5.78434 13.1166C5.78434 13.3538 5.64028 13.5643 5.42351 13.5816C5.16146 13.603 4.88706 13.6163 4.63188 13.5683C4.09681 13.4697 3.75656 13.0406 3.75107 12.5049C3.74558 11.9545 3.74832 11.4029 3.75107 10.8525C3.75107 10.7685 3.74695 10.7099 3.63171 10.7072C3.2942 10.6979 2.95669 10.6659 2.61781 10.6619C1.7521 10.6526 1.03867 10.3421 0.510457 9.66782C0.0398692 9.06815 -0.068517 8.38453 0.0371253 7.65693C0.194903 6.56287 1.2623 5.63806 2.39281 5.6114C3.77302 5.57942 5.14362 5.44883 6.50188 5.20763C7.91365 4.9571 9.29797 4.60396 10.6233 4.05893C11.1172 3.85638 11.5631 4.20552 11.5453 4.65593C11.5219 5.23694 11.5425 5.81796 11.537 6.4003C11.537 6.5149 11.5672 6.57753 11.6742 6.6375C12.3163 6.9973 12.6579 7.541 12.6593 8.26193C12.6607 8.98953 12.3163 9.53589 11.6687 9.89969C11.5686 9.95566 11.5357 10.0143 11.537 10.1249C11.5439 10.6246 11.5425 11.1257 11.5398 11.6267C11.537 12.1131 11.1117 12.397 10.6507 12.2117C9.46672 11.736 8.24155 11.3949 6.98756 11.1497C6.59655 11.0737 6.20279 11.0084 5.78434 10.9324C5.78434 11.0191 5.78434 11.075 5.78434 11.1297ZM9.41047 11.5068C9.41047 9.25071 9.41047 7.01063 9.41047 4.75588C7.21257 5.43817 4.9639 5.75799 2.66721 5.84994C2.66721 7.37309 2.66721 8.88692 2.66721 10.4141C4.95978 10.5034 7.20845 10.8245 9.41047 11.5068ZM11.2956 4.69058C11.3011 4.2948 10.9745 4.15888 10.685 4.2948C10.4065 4.4254 10.1074 4.52134 9.81384 4.61862C9.69722 4.65727 9.66978 4.71324 9.66978 4.82517C9.67389 6.38164 9.67252 7.93811 9.67252 9.49458C9.67252 10.1462 9.67527 10.7992 9.66978 11.4508C9.66978 11.5614 9.70682 11.6081 9.81246 11.6441C10.1157 11.748 10.4148 11.8626 10.7139 11.9759C11.0459 12.1025 11.2887 11.9492 11.2887 11.6041C11.2887 10.4474 11.2887 9.28936 11.2887 8.13267C11.2887 6.98531 11.2777 5.83794 11.2956 4.69058ZM2.39693 5.8646C1.42557 5.87659 0.168835 6.71479 0.252526 8.28325C0.325241 9.62251 1.4777 10.3941 2.39693 10.3914C2.39693 8.88292 2.39693 7.37309 2.39693 5.8646ZM4.01037 12.6342C4.02272 12.9953 4.39178 13.3231 4.76221 13.3484C4.93783 13.3604 5.11619 13.3591 5.2918 13.3551C5.45095 13.3511 5.53189 13.2725 5.53327 13.1192C5.53601 12.413 5.53601 11.7054 5.53189 10.9991C5.53189 10.9644 5.48799 10.9018 5.45781 10.8978C4.98036 10.8378 4.50017 10.7859 4.00488 10.7312C4.00488 11.3855 3.98979 12.0105 4.01037 12.6355V12.6342ZM12.411 8.3832C12.4329 7.71024 12.0899 7.09325 11.5521 6.85871V9.66782C11.9898 9.5079 12.3932 8.90024 12.411 8.3832Z" fill="#393A3A"/>
<path d="M13.6951 6.91053C13.6937 7.04379 13.7925 7.0891 13.9146 7.03713C14.3523 6.85323 14.7885 6.668 15.2262 6.48277C15.3113 6.44679 15.4059 6.42147 15.4787 6.36816C15.5239 6.33485 15.5665 6.25356 15.5555 6.20559C15.5363 6.12563 15.4608 6.11764 15.3785 6.15228C14.8571 6.37483 14.3331 6.59337 13.8117 6.81725C13.7609 6.83857 13.7212 6.88654 13.6951 6.9092V6.91053Z" fill="#393A3A"/>
<path d="M13.0269 5.9741C13.0489 5.95811 13.0942 5.93279 13.1271 5.89681C13.5044 5.50103 13.8803 5.10259 14.2562 4.70547C14.318 4.64018 14.3605 4.57088 14.2809 4.49492C14.2055 4.42296 14.1382 4.46827 14.0806 4.52824C13.7006 4.92935 13.3205 5.33046 12.9419 5.7329C12.9213 5.75556 12.898 5.77821 12.8856 5.80486C12.8486 5.88748 12.9089 5.97677 13.0256 5.9741H13.0269Z" fill="#393A3A"/>
<path d="M14.9875 8.14733C14.7172 8.14733 14.4469 8.14733 14.178 8.14733C14.0929 8.14733 13.9996 8.14733 13.9969 8.26193C13.9941 8.38453 14.0888 8.38986 14.1821 8.38986C14.7268 8.38986 15.2728 8.38986 15.8175 8.38986C15.9039 8.38986 15.9959 8.3832 16 8.27259C16.0041 8.14999 15.9053 8.146 15.8134 8.146C15.5376 8.146 15.2632 8.146 14.9875 8.146V8.14733Z" fill="#393A3A"/>
<path d="M15.4182 10.3951C15.4512 10.3631 15.5184 10.3284 15.5184 10.2924C15.5184 10.2445 15.4772 10.1752 15.4333 10.1539C15.2522 10.0659 15.0643 9.99261 14.8791 9.91399C14.5608 9.7794 14.2411 9.64481 13.9242 9.50755C13.835 9.4689 13.7472 9.44358 13.7019 9.55419C13.6594 9.6568 13.7417 9.69811 13.8213 9.73276C14.3111 9.93931 14.8022 10.1459 15.2934 10.3524C15.3263 10.3657 15.3606 10.3764 15.4182 10.3964V10.3951Z" fill="#393A3A"/>
<path d="M12.828 10.7047C12.8555 10.7474 12.8692 10.7807 12.8925 10.8047C13.2602 11.1951 13.6279 11.5856 14.0024 11.9694C14.0381 12.0054 14.1424 12.0227 14.1835 11.9987C14.2659 11.9507 14.2398 11.8694 14.1794 11.8055C13.8145 11.4203 13.4495 11.0339 13.0791 10.6514C13.0434 10.6155 12.9721 10.5941 12.92 10.5981C12.887 10.6008 12.8582 10.6648 12.8267 10.7021L12.828 10.7047Z" fill="#393A3A"/>
<path d="M2.66711 10.414C4.95969 10.5033 7.20836 10.8245 9.41038 11.5068C9.41038 9.2507 9.41038 7.01061 9.41038 4.75586C7.21247 5.43815 4.9638 5.75797 2.66711 5.84992C2.66711 7.37307 2.66711 8.8869 2.66711 10.414Z" fill="#FFF089"/>
<path d="M11.29 8.13268C11.29 6.98532 11.279 5.83796 11.2968 4.69059C11.3023 4.29481 10.9758 4.15889 10.6863 4.29481C10.4078 4.42541 10.1087 4.52135 9.81508 4.61863C9.69846 4.65728 9.67102 4.71325 9.67102 4.82518C9.67514 6.38165 9.67377 7.93812 9.67377 9.49459C9.67377 10.1462 9.67651 10.7992 9.67102 11.4508C9.67102 11.5614 9.70806 11.6081 9.81371 11.6441C10.1169 11.748 10.416 11.8626 10.7151 11.9759C11.0471 12.1025 11.29 11.9492 11.29 11.6041C11.29 10.4474 11.29 9.28937 11.29 8.13268Z" fill="#81BCFF"/>
<path d="M2.39678 10.3911C2.39678 8.88258 2.39678 7.37275 2.39678 5.86426C1.42542 5.87625 0.168692 6.71445 0.252383 8.28291C0.325098 9.62217 1.47756 10.3937 2.39678 10.3911Z" fill="#81BCFF"/>
<path d="M4.00485 10.73C4.00485 11.3843 3.98976 12.0093 4.01034 12.6343C4.02268 12.9954 4.39174 13.3232 4.76218 13.3485C4.93779 13.3605 5.11615 13.3592 5.29176 13.3552C5.45091 13.3512 5.53186 13.2726 5.53323 13.1193C5.53597 12.413 5.53597 11.7054 5.53186 10.9992C5.53186 10.9645 5.48795 10.9019 5.45777 10.8979C4.98032 10.8379 4.50013 10.7859 4.00485 10.7313V10.73Z" fill="#81BCFF"/>
<path d="M11.552 9.6675C11.9897 9.50759 12.393 8.89993 12.4109 8.38288C12.4328 7.70993 12.0898 7.09293 11.552 6.8584V9.6675Z" fill="#FCFCFC"/>
</svg>
