<svg width="42" height="31" viewBox="0 0 42 31" fill="none" xmlns="http://www.w3.org/2000/svg">
<g clip-path="url(#clip0_413_705)">
<path d="M40.29 13.8198L40.23 14.1498C39.4 18.2798 37.99 22.9298 33.77 26.1398C29.89 29.0898 25.33 29.4598 21.79 29.4598H21.25L21.3 29.1398C22.05 24.0898 23.98 20.2998 27.21 17.5498C30.2 14.9898 33.94 13.7998 38.97 13.7998C39.3 13.7998 39.63 13.7998 39.96 13.8098H40.29V13.8198Z" fill="#FFF089"/>
<path d="M20.39 28.78V29.25H20.1C16.15 29.23 11.59 28.81 7.71 25.73C3.68 22.54 2.29 17.94 1.46 13.86L1.38 13.5L1.75 13.52C2.17 13.54 2.58 13.56 2.98 13.57C3.86 13.61 4.68 13.64 5.52 13.74C8.35 14.06 10.75 14.83 12.85 16.1C15.58 17.73 17.55 20.17 18.88 23.56C19.32 24.67 19.64 25.84 19.94 26.98C20.08 27.48 20.21 27.98 20.36 28.48C20.38 28.58 20.39 28.67 20.39 28.78Z" fill="#FFF089"/>
<path d="M35.51 12.9202L34.94 13.0202C28.81 14.0802 24.61 17.2002 22.1 22.5702L22 22.7902L21.36 22.3602C21.39 21.9902 21.43 21.6302 21.46 21.2702C21.52 20.5002 21.59 19.7102 21.73 18.9302C22.61 13.8802 25.53 10.2202 30.66 7.73016C31.53 7.31016 32.42 6.95016 33.36 6.57016C33.79 6.40016 34.22 6.23016 34.66 6.05016L35 5.91016L35.05 6.27016C35.35 8.40016 35.51 12.9202 35.51 12.9202Z" fill="#FFF089"/>
<path d="M16.54 11.52C19.17 14.32 20.43 17.87 20.38 22.36L19.85 22.49C18.33 19.62 16.67 17.59 14.62 16.11C12.38 14.5 9.86999 13.48 6.93999 12.99L6.72999 12.95L6.69999 12.74C6.45999 10.67 6.48999 8.58 6.78999 6.33L6.83999 6L7.15999 6.1C11.23 7.33 14.22 9.05 16.54 11.52Z" fill="#FFF089"/>
<path d="M25.18 8.94998C25.31 9.19998 25.27 9.66998 25.05 9.88998C23.34 11.51 22.06 13.48 21.23 15.76L21.11 15.95L20.77 16.42L20.59 15.91C19.78 13.61 18.78 11.96 17.44 10.68C16.5 9.77998 16.58 9.02998 17.04 8.03998C18.13 5.68998 19.3 3.77998 20.72 2.01998L20.95 1.72998L21.17 2.03998C21.35 2.28998 21.53 2.53998 21.72 2.77998C22.15 3.34998 22.55 3.88998 22.89 4.48998C23.61 5.75998 24.27 7.08998 24.9 8.37998L25.18 8.94998Z" fill="#FFF089"/>
<path d="M41.38 12.98C41.38 12.98 41.38 13.03 41.37 13.07C40.86 16.81 39.76 19.96 37.99 22.7C36 25.8 33.19 27.85 29.41 28.95C28.91 29.09 28.41 29.22 27.89 29.33C26.19 29.69 24.43 29.88 22.67 29.88C22.25 29.88 21.82 29.86 21.4 29.84C21.01 29.83 20.62 29.82 20.23 29.82C20.06 29.82 18.46 29.84 18.3 29.84C17.67 29.84 17.19 29.82 16.75 29.78C11.69 29.34 8.05 27.77 5.29 24.81C3.31 22.7 1.89 19.98 0.95 16.51C0.7 15.59 0.53 14.61 0.36 13.66L0.27 13.13C0.26 13.06 0.25 13.02 0.25 12.98C0.29 12.97 0.33 12.97 0.39 12.97C0.84 12.96 1.27 12.96 1.71 12.96H5.55V11.84C5.55 11.43 5.55 11.02 5.54 10.62C5.53 9.71 5.52 8.87 5.57 8.04C5.62 6.89 5.79 5.74 5.95 4.74C5.95 4.72 5.96 4.7 5.96 4.68C6 4.68 6.03 4.69 6.07 4.7C9.11 5.32 12.35 6.7 15.65 9.31C15.77 9.07 16.38 7.11 16.55 6.78C17.02 5.84 17.47 4.94 17.98 4.13C18.81 2.81 19.82 1.53 20.78 0.3C20.8 0.28 20.81 0.27 20.82 0.25C20.85 0.28 20.88 0.31 20.91 0.35C22.72 2.33 24.22 4.64 25.36 7.2L26.15 9.02L27.24 8.41C27.63 8.19 28.01 7.97 28.4 7.74C29.18 7.28 29.99 6.8 30.8 6.45C31.58 6.11 32.47 5.76 33.6 5.37L35.49 4.74C35.57 4.71 35.62 4.7 35.67 4.68C35.68 4.71 35.68 4.75 35.69 4.79C36.08 6.98 36.2 8.82 36.09 10.58C36.07 10.86 36.07 11.14 36.08 11.44V12.97H41.25C41.31 12.98 41.35 12.98 41.38 12.98ZM40.23 14.15L40.29 13.82H39.96C39.63 13.8 39.3 13.8 38.97 13.8C33.94 13.8 30.2 14.99 27.21 17.55C23.98 20.3 22.05 24.09 21.3 29.14L21.25 29.46H21.79C25.33 29.46 29.89 29.09 33.77 26.14C37.99 22.93 39.4 18.28 40.23 14.15ZM34.94 13.02L35.51 12.92C35.51 12.92 35.35 8.4 35.05 6.27L35 5.91L34.66 6.05C34.22 6.23 33.79 6.4 33.36 6.57C32.42 6.95 31.53 7.31 30.66 7.73C25.53 10.22 22.61 13.88 21.73 18.93C21.59 19.71 21.52 20.5 21.46 21.27C21.43 21.63 21.39 21.99 21.36 22.36L22 22.79L22.1 22.57C24.61 17.2 28.81 14.08 34.94 13.02ZM25.05 9.89C25.27 9.67 25.31 9.2 25.18 8.95L24.9 8.38C24.27 7.09 23.61 5.76 22.89 4.49C22.55 3.89 22.15 3.35 21.72 2.78C21.53 2.54 21.35 2.29 21.17 2.04L20.95 1.73L20.72 2.02C19.3 3.78 18.13 5.69 17.04 8.04C16.58 9.03 16.5 9.78 17.44 10.68C18.78 11.96 19.78 13.61 20.59 15.91L20.77 16.42L21.11 15.95L21.23 15.76C22.06 13.48 23.34 11.51 25.05 9.89ZM20.4 29.25V28.78C20.4 28.67 20.38 28.58 20.36 28.48C20.21 27.98 20.08 27.48 19.94 26.98C19.64 25.84 19.32 24.67 18.88 23.56C17.55 20.17 15.58 17.73 12.85 16.1C10.75 14.83 8.35 14.06 5.52 13.74C4.68 13.64 3.86 13.61 2.98 13.57C2.58 13.57 2.17 13.54 1.75 13.52L1.38 13.5L1.46 13.86C2.29 17.94 3.68 22.54 7.71 25.73C11.59 28.81 16.15 29.23 20.1 29.25H20.4ZM20.38 22.36C20.43 17.87 19.17 14.32 16.54 11.52C14.22 9.05 11.23 7.33 7.16 6.1L6.84 6L6.79 6.33C6.49 8.58 6.46 10.67 6.7 12.74L6.73 12.95L6.94 12.99C9.87 13.48 12.38 14.5 14.62 16.11C16.67 17.59 18.33 19.62 19.85 22.49L20.38 22.36Z" fill="#575959"/>
</g>
<defs>
<clipPath id="clip0_413_705">
<rect width="41.63" height="30.13" fill="white"/>
</clipPath>
</defs>
</svg>
