<svg width="44" height="32" viewBox="0 0 44 32" fill="none" xmlns="http://www.w3.org/2000/svg">
<g clip-path="url(#clip0_413_741)">
<path d="M22.54 30.21C26.08 30.21 30.64 29.84 34.52 26.89C38.74 23.68 40.15 19.03 40.98 14.9L41.04 14.57H40.71C40.38 14.55 40.05 14.55 39.72 14.55C34.69 14.55 30.95 15.74 27.96 18.3C24.73 21.05 22.8 24.84 22.05 29.89L22 30.21H22.54ZM31.41 8.48C26.28 10.97 23.36 14.63 22.48 19.68C22.34 20.46 22.27 21.25 22.21 22.02C22.18 22.38 22.14 22.74 22.11 23.11L22.75 23.54L22.85 23.32C25.36 17.95 29.56 14.83 35.69 13.77L36.26 13.67C36.26 13.67 36.1 9.15 35.8 7.02L35.75 6.66L35.41 6.8C34.97 6.98 34.54 7.15 34.11 7.32C33.17 7.7 32.28 8.06 31.41 8.48ZM21.47 2.77C20.05 4.53 18.88 6.44 17.79 8.79C17.33 9.78 17.25 10.53 18.19 11.43C19.53 12.71 20.53 14.36 21.34 16.66L21.52 17.17L21.86 16.7L21.98 16.51C22.81 14.23 24.09 12.26 25.8 10.64C26.02 10.42 26.06 9.95 25.93 9.7L25.65 9.13C25.02 7.84 24.36 6.51 23.64 5.24C23.3 4.64 22.9 4.1 22.47 3.53C22.28 3.29 22.1 3.04 21.92 2.79L21.7 2.48L21.47 2.77ZM7.69 13.74C10.62 14.23 13.13 15.25 15.37 16.86C17.42 18.34 19.08 20.37 20.6 23.24L21.13 23.11C21.18 18.62 19.92 15.07 17.29 12.27C14.97 9.8 11.98 8.08 7.91 6.85L7.59 6.75L7.54 7.08C7.24 9.33 7.21 11.42 7.45 13.49L7.48 13.7L7.69 13.74ZM8.46 26.48C12.34 29.56 16.9 29.98 20.85 30H21.15V29.53C21.14 29.42 21.13 29.33 21.11 29.23C20.96 28.73 20.83 28.23 20.69 27.73C20.39 26.59 20.07 25.42 19.63 24.31C18.3 20.92 16.33 18.48 13.6 16.85C11.5 15.58 9.1 14.81 6.27 14.49C5.43 14.39 4.61 14.36 3.73 14.32C3.33 14.31 2.92 14.29 2.5 14.27L2.13 14.25L2.21 14.61C3.04 18.69 4.43 23.29 8.46 26.48ZM17.5 30.53C12.44 30.09 8.8 28.52 6.04 25.56C4.06 23.45 2.64 20.73 1.7 17.26C1.45 16.34 1.28 15.36 1.11 14.41L1.02 13.88C1.01 13.81 1 13.77 1 13.73C1.04 13.72 1.08 13.72 1.14 13.72C1.59 13.71 2.02 13.71 2.46 13.71H6.3V12.59C6.3 12.18 6.3 11.77 6.29 11.37C6.28 10.46 6.27 9.62 6.32 8.79C6.37 7.64 6.54 6.49 6.7 5.49C6.7 5.47 6.71 5.45 6.71 5.43C6.75 5.43 6.78 5.44 6.82 5.45C9.86 6.07 13.1 7.45 16.4 10.06C16.52 9.82 17.13 7.86 17.3 7.53C17.77 6.59 18.22 5.69 18.73 4.88C19.56 3.56 20.57 2.28 21.53 1.05C21.55 1.03 21.56 1.02 21.57 1C21.6 1.03 21.63 1.06 21.66 1.1C23.47 3.08 24.97 5.39 26.11 7.95L26.9 9.77L27.99 9.16C28.38 8.94 28.76 8.72 29.15 8.49C29.93 8.03 30.74 7.55 31.55 7.2C32.33 6.86 33.22 6.51 34.35 6.12L36.24 5.49C36.32 5.46 36.37 5.45 36.42 5.43C36.43 5.46 36.43 5.5 36.44 5.54C36.83 7.73 36.95 9.57 36.84 11.33C36.82 11.61 36.82 11.89 36.83 12.19V13.72H42C42.06 13.73 42.1 13.73 42.13 13.73C42.13 13.76 42.13 13.78 42.12 13.82C41.61 17.56 40.51 20.71 38.74 23.45C36.75 26.55 33.94 28.6 30.16 29.7C29.66 29.84 29.16 29.97 28.64 30.08C26.94 30.44 25.18 30.63 23.42 30.63C23 30.63 22.57 30.61 22.15 30.59C21.76 30.58 21.37 30.57 20.98 30.57C20.81 30.57 19.21 30.59 19.05 30.59C18.42 30.59 17.94 30.57 17.5 30.53Z" fill="#575959"/>
</g>
<defs>
<clipPath id="clip0_413_741">
<rect width="41.13" height="29.63" fill="white" transform="translate(1 1)"/>
</clipPath>
</defs>
</svg>
