<svg width="32" height="33" viewBox="0 0 32 33" fill="none" xmlns="http://www.w3.org/2000/svg">
<g clip-path="url(#clip0_413_746)">
<path d="M15.57 15.1201C16.17 15.1301 16.64 15.6301 16.63 16.2601C16.63 16.8901 16.15 17.3801 15.55 17.3801C14.95 17.3801 14.46 16.8801 14.47 16.2201C14.48 15.6001 14.96 15.1201 15.57 15.1201Z" fill="#FFF089"/>
<path d="M30.86 16.24V16.27C30.85 25.1 24 32.25 15.55 32.25H15.53C7.09 32.24 0.25 25.08 0.25 16.25V16.23C0.25 7.41 7.07 0.28 15.5 0.25H15.6C24.02 0.27 30.84 7.42 30.86 16.24ZM29.86 16.26C29.86 7.99 23.48 1.3 15.55 1.3C7.64 1.29 1.29 7.92 1.25 16.23C1.21 24.47 7.6 31.18 15.54 31.21C23.44 31.24 29.84 24.55 29.86 16.26Z" fill="#575959"/>
<path d="M15.55 1.29982C23.48 1.29982 29.87 7.98982 29.86 16.2598C29.84 24.5498 23.44 31.2398 15.54 31.2098C7.6 31.1798 1.21 24.4698 1.25 16.2298C1.29 7.91982 7.64 1.28982 15.55 1.29982ZM15.57 30.0498C22.86 29.9898 28.78 23.7998 28.75 16.2398C28.72 8.62982 22.8 2.44982 15.55 2.45982C8.29 2.45982 2.37 8.64982 2.36 16.2498C2.34 23.8198 8.35 30.0998 15.57 30.0498Z" fill="#FFF089"/>
<path d="M28.75 16.24C28.78 23.8 22.86 29.99 15.57 30.05C8.35 30.1 2.34 23.82 2.36 16.25C2.36 8.64997 8.29 2.45997 15.55 2.45997C22.8 2.44997 28.72 8.62997 28.75 16.24ZM26.59 15.74H27.72C27.62 12.39 26.22 9.37997 24.1 7.18997C21.97 4.99997 19.1 3.62997 16.04 3.53997V3.87997C16.04 4.50997 16.05 5.14997 16.04 5.77997C16.03 6.07997 15.82 6.25997 15.55 6.24997C15.29 6.24997 15.11 6.06997 15.08 5.78997C15.07 5.63997 15.08 5.48997 15.08 5.34997V3.53997H15.07C9.05 3.68997 3.62 8.92997 3.4 15.74H5.36C5.79 15.74 6 15.92 6 16.26C5.99 16.6 5.79 16.76 5.35 16.76H3.67C3.58 16.76 3.48 16.77 3.39 16.78C3.52 19.76 4.57 22.32 6.14 24.31C8.43 27.22 11.83 28.93 15.07 28.95V28.61C15.07 28 15.07 27.38 15.08 26.77C15.08 26.45 15.28 26.25 15.56 26.25C15.84 26.25 16.04 26.45 16.04 26.77C16.06 27.25 16.04 27.73 16.04 28.2V28.97C22.78 28.7 27.61 22.8 27.7 16.76H25.74C25.33 16.76 25.12 16.59 25.12 16.26C25.12 15.92 25.32 15.75 25.75 15.74H26.59Z" fill="#575959"/>
<path d="M27.72 15.7399H25.75C25.32 15.7499 25.11 15.9199 25.12 16.2599C25.12 16.5899 25.33 16.7599 25.74 16.7599H27.7C27.61 22.7999 22.78 28.6999 16.04 28.9699V28.1999C16.04 27.7299 16.05 27.2499 16.04 26.7699C16.04 26.4499 15.84 26.2499 15.56 26.2499C15.28 26.2499 15.08 26.4499 15.08 26.7699C15.07 27.3799 15.07 27.9999 15.07 28.6099V28.9499C11.83 28.9299 8.43001 27.2199 6.14001 24.3099L8.52002 23.8999C8.59002 23.9299 8.67001 23.9399 8.75001 23.9399C8.82001 23.9199 8.95001 23.8799 9.08001 23.8199C12.13 22.4099 15.17 20.9899 18.22 19.5799C18.48 19.4599 18.64 19.2899 18.75 19.0199C19.55 17.1099 20.37 15.2099 21.18 13.2999C21.73 11.9999 22.29 10.7099 22.84 9.39994C23.02 8.98994 22.88 8.60994 22.53 8.56994H22.48L24.11 7.18994C26.23 9.37994 27.63 12.3899 27.73 15.7399H27.72Z" fill="#FFF089"/>
<path d="M24.1 7.19004L22.47 8.57004C22.34 8.57004 22.2 8.61004 22.07 8.67004L12.89 12.93C12.64 13.04 12.48 13.21 12.37 13.48C11.36 15.86 10.34 18.24 9.33 20.62C8.97 21.47 8.61 22.31 8.26 23.16C8.11 23.49 8.22001 23.8 8.51 23.9L6.13 24.31C4.56 22.32 3.51 19.76 3.38 16.78C3.47 16.77 3.57 16.76 3.66 16.76H5.34C5.78 16.76 5.98 16.6 5.99 16.26C5.99 15.92 5.78 15.74 5.35 15.74H3.39C3.61 8.93004 9.04001 3.69004 15.06 3.54004H15.07V5.35004C15.07 5.49004 15.06 5.64004 15.07 5.79004C15.1 6.07004 15.28 6.25004 15.54 6.25004C15.81 6.26004 16.02 6.08004 16.03 5.78004C16.05 5.15004 16.03 4.51004 16.03 3.88004V3.54004C19.09 3.63004 21.96 5.00004 24.09 7.19004H24.1Z" fill="#FFF089"/>
<path d="M22.52 8.56982C22.87 8.60982 23.01 8.98982 22.83 9.39982C22.28 10.7098 21.72 11.9998 21.17 13.2998C20.36 15.2098 19.54 17.1098 18.74 19.0198C18.63 19.2898 18.47 19.4598 18.21 19.5798C15.16 20.9898 12.12 22.4098 9.06999 23.8198C8.93999 23.8798 8.80999 23.9198 8.73999 23.9398C8.65999 23.9398 8.57999 23.9298 8.50999 23.8998C8.21999 23.7998 8.10999 23.4898 8.25999 23.1598C8.60999 22.3098 8.96999 21.4698 9.32999 20.6198C10.34 18.2398 11.36 15.8598 12.37 13.4798C12.48 13.2098 12.64 13.0398 12.89 12.9298L22.07 8.66982C22.2 8.60982 22.34 8.56982 22.47 8.56982H22.52ZM18.04 18.1198C19.18 15.4298 20.3 12.7998 21.45 10.0898C18.85 11.2898 16.33 12.4598 13.74 13.6698C13.96 13.8798 14.15 14.0498 14.32 14.2398C14.43 14.3598 14.51 14.3498 14.65 14.2998C14.97 14.1998 15.31 14.0698 15.63 14.0898C17.26 14.1798 18.05 15.9298 17.41 17.2198C17.38 17.2798 17.37 17.3998 17.41 17.4398C17.6 17.6598 17.82 17.8798 18.05 18.1198H18.04ZM17.29 18.8698C17.05 18.6298 16.83 18.3998 16.59 18.1498C15.85 18.4598 15.53 18.4998 15.02 18.3498C13.75 17.9798 13.13 16.5798 13.66 15.3198C13.7 15.2398 13.73 15.1098 13.69 15.0498C13.52 14.8198 13.32 14.5998 13.09 14.3298C11.93 17.0598 10.81 19.6998 9.64999 22.4198C12.26 21.2098 14.78 20.0398 17.29 18.8698ZM16.63 16.2598C16.64 15.6298 16.17 15.1298 15.57 15.1198C14.96 15.1198 14.48 15.5998 14.47 16.2198C14.46 16.8798 14.93 17.3798 15.55 17.3798C16.17 17.3798 16.63 16.8898 16.63 16.2598Z" fill="#575959"/>
<path d="M21.45 10.0898C20.3 12.7998 19.18 15.4298 18.04 18.1198C17.81 17.8798 17.59 17.6598 17.4 17.4398C17.37 17.3998 17.38 17.2798 17.4 17.2198C18.04 15.9298 17.25 14.1798 15.62 14.0898C15.3 14.0698 14.96 14.1998 14.64 14.2998C14.5 14.3498 14.42 14.3598 14.31 14.2398C14.14 14.0498 13.95 13.8798 13.73 13.6698C16.32 12.4598 18.84 11.2898 21.44 10.0898H21.45Z" fill="#FCFCFC"/>
<path d="M16.59 18.1501C16.83 18.4001 17.05 18.6301 17.29 18.8701C14.78 20.0401 12.26 21.2101 9.64999 22.4201C10.81 19.7001 11.93 17.0601 13.09 14.3301C13.32 14.6001 13.52 14.8201 13.69 15.0501C13.73 15.1101 13.69 15.2401 13.66 15.3201C13.13 16.5801 13.75 17.9801 15.02 18.3501C15.53 18.5001 15.85 18.4601 16.59 18.1501Z" fill="#FCFCFC"/>
</g>
<defs>
<clipPath id="clip0_413_746">
<rect width="31.11" height="32.5" fill="white"/>
</clipPath>
</defs>
</svg>
