<svg width="11" height="18" viewBox="0 0 11 18" fill="none" xmlns="http://www.w3.org/2000/svg">
<path d="M5.21749 16.7075L5.40894 16.8683C5.80203 16.4002 6.19391 15.9323 6.58554 15.4648C7.33814 14.5663 8.08979 13.669 8.84724 12.7731L8.84743 12.7729C9.21009 12.3429 9.5784 11.8749 9.77983 11.288L9.78251 11.2801L9.79982 11.2677L9.81033 11.1991L9.89346 10.9568H9.8482C9.89333 10.6673 9.93629 10.3513 9.91024 10.032L9.91023 10.0319C9.83462 9.11135 9.49233 8.27364 8.72434 7.6851C7.70076 6.90047 6.29157 7.1238 5.4855 8.12108L5.48432 8.12255C5.39191 8.23865 5.29715 8.35201 5.20015 8.46804L5.19924 8.46913C5.1305 8.55136 5.06063 8.63494 4.9911 8.72023C4.89257 8.59859 4.7918 8.47813 4.69255 8.3595C4.62976 8.28445 4.56758 8.21013 4.50697 8.13671C4.05915 7.58701 3.46581 7.25542 2.74877 7.22208V7.22208L2.74777 7.22203C1.85011 7.18388 1.15475 7.60168 0.667818 8.32054L0.667622 8.32082C0.0570053 9.225 -0.0829811 10.2188 0.21841 11.2634L0.218402 11.2634L0.218967 11.2653L0.224285 11.2829L0.228331 11.2964C0.229152 11.2992 0.229814 11.3016 0.230348 11.3036L0.196755 11.4901L0.296402 11.5279C0.455575 11.8557 0.644874 12.1796 0.894559 12.4723C1.36876 13.0316 1.83888 13.5952 2.30975 14.1597L2.31 14.16C3.08794 15.0898 3.86585 16.0153 4.64355 16.9405L4.64472 16.9419C4.68041 16.9837 4.72278 17.0296 4.77124 17.0658C4.82169 17.1035 4.89667 17.1442 4.9931 17.1442C5.08896 17.1442 5.16368 17.104 5.2138 17.0673C5.26233 17.0317 5.30536 16.9865 5.34207 16.9448L5.34216 16.9449L5.34724 16.9388C5.3538 16.9308 5.36077 16.923 5.37175 16.9108L5.37276 16.9097C5.38272 16.8987 5.39631 16.8836 5.4103 16.8666L5.21749 16.7075ZM5.21749 16.7075C5.61016 16.2399 6.00184 15.7723 6.39338 15.3049C7.14623 14.4061 7.89855 13.508 8.65633 12.6117L4.31364 8.29521C3.90586 7.79438 3.37616 7.50152 2.73716 7.47181C1.9384 7.43785 1.32042 7.80287 0.874803 8.46074C0.307269 9.30112 0.176946 10.2179 0.458611 11.1941C0.459917 11.1985 0.461267 11.2029 0.46263 11.2074C0.474434 11.2462 0.487168 11.2881 0.479631 11.3299C0.513263 11.3426 0.513263 11.3724 0.513263 11.4021C0.668809 11.7246 0.849579 12.0345 1.085 12.3104C1.56005 12.8706 2.03089 13.4351 2.50173 13.9996C3.27947 14.9291 4.0572 15.8544 4.83493 16.7796C4.96525 16.9324 5.0199 16.9324 5.15443 16.7796C5.16494 16.7669 5.17545 16.7552 5.18596 16.7436C5.19647 16.7319 5.20698 16.7202 5.21749 16.7075Z" fill="#FF9393" stroke="#575959" stroke-width="0.5"/>
<path d="M1.79154 5.4378C1.25551 6.0822 0.854889 6.80587 0.60039 7.61489L0.600351 7.61501C0.443565 8.1125 0.316779 8.60272 0.269698 9.09443C0.367378 8.82897 0.501075 8.56965 0.671426 8.31731C1.15531 7.59187 1.85596 7.17985 2.75197 7.21794C3.4719 7.24682 4.06046 7.58483 4.51071 8.13206C4.57147 8.20567 4.6338 8.28018 4.69675 8.35542C4.79597 8.47401 4.89672 8.59444 4.99522 8.71604C5.07705 8.61531 5.16207 8.51314 5.24566 8.4127C5.33004 8.3113 5.41297 8.21165 5.48969 8.11699C6.29577 7.11971 7.70496 6.89638 8.72854 7.681C9.24476 8.07661 9.56865 8.5848 9.74849 9.15506C9.76695 8.37089 9.61442 7.58992 9.31814 6.80971L1.79154 5.4378ZM1.79154 5.4378C1.81606 5.74072 1.85323 6.05173 1.93103 6.36862L2.02845 6.76543L2.33741 6.49805C2.55294 6.31154 2.73257 6.12134 2.90305 5.94082L2.90629 5.93739L2.9063 5.9374L2.90782 5.93575C3.68361 5.09941 4.17283 4.1057 4.54855 3.0712C4.56807 3.01758 4.58768 2.96384 4.60734 2.90998C4.79776 2.38818 4.99247 1.85464 5.14618 1.30474C5.21941 1.37996 5.29259 1.45499 5.36567 1.52992C6.08314 2.26554 6.79094 2.99123 7.43238 3.78007L7.43277 3.78055C8.20101 4.72057 8.89114 5.68889 9.31812 6.80967L1.79154 5.4378Z" fill="#FFDBA5" stroke="#575959" stroke-width="0.5"/>
<path d="M9.54335 11.2071C9.54335 11.1774 9.54335 11.1477 9.57278 11.1265C9.57278 11.1562 9.57278 11.1859 9.54335 11.2071Z" fill="#FFDBA5"/>
<path d="M0.479625 11.3301C0.517461 11.3428 0.513257 11.3725 0.513257 11.4022C0.488033 11.3853 0.475421 11.3598 0.479625 11.3301Z" fill="#FFDBA5"/>
</svg>
