<svg width="33" height="34" viewBox="0 0 33 34" fill="none" xmlns="http://www.w3.org/2000/svg">
<path d="M16.5309 28.4762C15.2034 28.4762 13.8759 28.4762 12.5471 28.4762C11.7889 28.4762 11.3872 28.0811 11.3832 27.3223C11.3779 26.2733 11.3752 25.2257 11.3872 24.1767C11.3898 23.9457 11.3167 23.8065 11.1251 23.666C8.97561 22.0972 7.62417 20.0203 7.34218 17.3908C6.96708 13.9026 8.25866 11.0577 11.0932 8.94014C12.7998 7.6667 14.7671 7.10744 16.902 7.17833C21.1984 7.32274 24.9002 10.4564 25.6424 14.6457C26.2956 18.3307 25 21.3069 22.0457 23.5991C21.789 23.7986 21.6892 23.9837 21.6959 24.2975C21.7145 25.2913 21.6866 26.2851 21.7078 27.2789C21.7238 28.001 21.2556 28.5077 20.4801 28.4867C19.1646 28.4486 17.8477 28.4762 16.5309 28.4762ZM16.2688 11.2441C16.1026 11.2678 15.794 11.3006 15.492 11.3597C13.1736 11.8086 11.3978 13.9275 11.3832 16.2552C11.3792 16.8486 11.7902 17.312 12.3462 17.3422C12.9501 17.375 13.3771 16.993 13.4409 16.3668C13.4649 16.1396 13.4715 15.9073 13.5234 15.6854C13.8533 14.261 14.9626 13.3722 16.5163 13.2764C17.1707 13.2357 17.5844 12.813 17.5578 12.213C17.5325 11.6314 17.0576 11.2297 16.2688 11.2468V11.2441Z" stroke="#575959" stroke-miterlimit="10"/>
<path d="M16.5429 32.9329C15.7022 32.9329 14.8616 32.9382 14.0209 32.9303C13.3053 32.9237 12.7679 32.4039 12.7586 31.7251C12.7479 31.0425 13.2667 30.4845 13.9783 30.4793C15.6823 30.4648 17.3849 30.4648 19.0888 30.4819C19.7645 30.4885 20.2407 30.9466 20.3192 31.586C20.3884 32.1492 20.0039 32.7137 19.424 32.8804C19.279 32.9224 19.1194 32.9303 18.9664 32.9303C18.159 32.9356 17.3516 32.9329 16.5442 32.9316L16.5429 32.9329Z" fill="#FCFCFC" stroke="#575959" stroke-miterlimit="10"/>
<path d="M25.3086 23.8656C25.552 23.9955 25.8326 24.0861 26.0308 24.2647C26.5509 24.736 27.0431 25.2401 27.5326 25.7442C27.9489 26.1722 27.9383 26.7813 27.5299 27.1804C27.1176 27.5835 26.5057 27.5848 26.0747 27.1686C25.5533 26.6658 25.0359 26.1578 24.5278 25.6405C24.2218 25.3281 24.1553 24.9473 24.3322 24.5522C24.5065 24.1623 24.823 23.947 25.3086 23.8643V23.8656Z" fill="#FCFCFC" stroke="#575959" stroke-miterlimit="10"/>
<path d="M8.84661 25.1022C8.78276 25.2191 8.70162 25.479 8.53269 25.6575C8.03787 26.184 7.51512 26.6855 6.99104 27.1857C6.58933 27.569 5.98411 27.5664 5.58507 27.1988C5.18336 26.8286 5.11685 26.2221 5.49595 25.8164C6.02535 25.2479 6.58534 24.7044 7.15598 24.1767C7.47389 23.8826 7.87692 23.8577 8.26799 24.0415C8.65107 24.2226 8.82931 24.5456 8.84661 25.1022Z" fill="#FCFCFC" stroke="#575959" stroke-miterlimit="10"/>
<path d="M15.5266 3.09637C15.5266 2.72615 15.504 2.35462 15.5319 1.98572C15.5745 1.43302 15.9948 1.06675 16.5402 1.06543C17.0802 1.06412 17.5285 1.43434 17.5525 1.98047C17.5844 2.73009 17.5857 3.48365 17.5525 4.23458C17.5285 4.78203 17.0802 5.1575 16.5429 5.15881C15.9975 5.15881 15.5586 4.76627 15.5213 4.20701C15.4974 3.83811 15.5173 3.46658 15.5173 3.09637C15.52 3.09637 15.5226 3.09637 15.5253 3.09637H15.5266Z" fill="#FCFCFC" stroke="#575959" stroke-miterlimit="10"/>
<path d="M3.13091 17.3395C2.78773 17.3395 2.44455 17.3473 2.10137 17.3395C1.51743 17.325 1.09178 16.9312 1.06784 16.3969C1.04124 15.8232 1.44161 15.344 2.03486 15.319C2.77443 15.2888 3.51798 15.2888 4.25888 15.319C4.82819 15.3414 5.26315 15.8389 5.2392 16.3627C5.21393 16.9062 4.77365 17.3237 4.1937 17.3382C3.83988 17.3473 3.48606 17.3395 3.13091 17.3408V17.3395Z" fill="#FCFCFC" stroke="#575959" stroke-miterlimit="10"/>
<path d="M29.9123 17.3395C29.5691 17.3395 29.2259 17.3474 28.884 17.3369C28.3094 17.3211 27.8651 16.8918 27.8505 16.3509C27.8359 15.8205 28.2695 15.3374 28.8402 15.3151C29.5691 15.2875 30.3007 15.2889 31.0296 15.3151C31.6228 15.3361 32.0365 15.8061 32.0192 16.3732C32.0033 16.9246 31.575 17.3237 30.9751 17.3382C30.6212 17.346 30.2674 17.3395 29.9136 17.3382L29.9123 17.3395Z" fill="#FCFCFC" stroke="#575959" stroke-miterlimit="10"/>
<path d="M8.84792 7.57341C8.83329 8.14187 8.62845 8.46219 8.23472 8.64074C7.837 8.82059 7.44594 8.76546 7.12936 8.46744C6.60262 7.96989 6.08785 7.46051 5.58638 6.93801C5.19798 6.53366 5.21394 5.93895 5.59037 5.55167C5.97612 5.15389 6.59597 5.11844 7.01896 5.50835C7.55102 5.99934 8.07111 6.50478 8.56593 7.03253C8.72688 7.2032 8.79072 7.46182 8.84659 7.57473L8.84792 7.57341Z" fill="#FCFCFC" stroke="#575959" stroke-miterlimit="10"/>
<path d="M24.2365 7.55603C24.3069 7.43131 24.4054 7.15825 24.5876 6.96132C25.0266 6.48608 25.5001 6.03972 25.9696 5.59336C26.4418 5.14569 27.067 5.12994 27.4794 5.54085C27.8997 5.95964 27.8664 6.58192 27.3956 7.05191C26.9287 7.51796 26.4645 7.98663 25.9883 8.44218C25.6637 8.75463 25.27 8.82684 24.8576 8.64436C24.4626 8.46844 24.2577 8.14549 24.2365 7.55603Z" fill="#FCFCFC" stroke="#575959" stroke-miterlimit="10"/>
<path d="M16.2689 11.2438C17.0576 11.2281 17.5325 11.6285 17.5578 12.2101C17.5831 12.8113 17.1694 13.2341 16.5163 13.2735C14.9627 13.3693 13.8533 14.2581 13.5234 15.6825C13.4716 15.9043 13.4649 16.1354 13.441 16.3638C13.3758 16.9914 12.9501 17.3721 12.3462 17.3393C11.7889 17.3091 11.3792 16.847 11.3832 16.2522C11.3978 13.9259 13.1749 11.8057 15.4921 11.3567C15.7953 11.2977 16.1026 11.2662 16.2689 11.2412V11.2438Z" fill="#575959" stroke="#575959" stroke-miterlimit="10"/>
</svg>
