<svg width="16" height="11" viewBox="0 0 16 11" fill="none" xmlns="http://www.w3.org/2000/svg">
<g clip-path="url(#clip0_413_625)">
<path d="M1.9023 4.87125C1.9023 4.79725 1.9023 4.74176 1.9023 4.68626C1.9023 3.79677 1.89922 2.90728 1.9023 2.01625C1.90539 1.33025 2.34319 0.786076 3.00915 0.638085C3.13402 0.610336 3.2666 0.605711 3.39609 0.605711C6.46536 0.60417 9.5331 0.611878 12.5993 0.601087C13.4441 0.598004 13.9759 1.1653 14.0746 1.7696C14.0931 1.88214 14.0931 1.99775 14.0931 2.11183C14.0931 2.97049 14.0931 3.82914 14.0931 4.6878C14.0931 4.7433 14.0931 4.79879 14.0931 4.85892C14.3428 4.87125 14.5771 4.86971 14.8068 4.89591C15.4543 4.96991 15.9861 5.54954 15.9923 6.20163C16.0015 7.25298 15.9969 8.30433 15.9938 9.35569C15.9938 9.59926 15.8536 9.78116 15.61 9.84128C15.5144 9.86441 15.4789 9.91065 15.4543 10.0001C15.3942 10.2143 15.3279 10.4286 15.2523 10.6367C15.2354 10.6845 15.1676 10.7431 15.1213 10.7446C14.8099 10.7539 14.497 10.7539 14.184 10.7446C14.1409 10.7446 14.0761 10.6892 14.0607 10.646C13.9836 10.4255 13.9127 10.2036 13.8526 9.97848C13.8264 9.88137 13.7817 9.85824 13.6892 9.85978C13.4179 9.86441 13.1481 9.86132 12.8768 9.86132C9.37277 9.86132 5.86723 9.86132 2.36323 9.85824C2.21987 9.85824 2.1505 9.89061 2.11658 10.0371C2.07188 10.239 1.99326 10.4332 1.9393 10.6337C1.91618 10.7184 1.88072 10.7539 1.78977 10.7524C1.48762 10.7477 1.18547 10.7477 0.883322 10.7524C0.796994 10.7524 0.75383 10.7261 0.729165 10.6398C0.667502 10.4194 0.591965 10.2051 0.530302 9.98465C0.50872 9.90603 0.477888 9.86749 0.393101 9.84591C0.134117 9.77962 0 9.59772 0 9.32332C0 8.31821 0 7.31464 0 6.30954C0 5.48325 0.593506 4.88358 1.42133 4.87125C1.57549 4.86971 1.73119 4.87125 1.9023 4.87125ZM0.49947 9.35106H15.4882C15.4928 9.3264 15.4974 9.31098 15.4974 9.29557C15.4974 8.27042 15.5005 7.24527 15.4928 6.22013C15.4928 6.09526 15.4497 5.96114 15.3911 5.85015C15.2061 5.50175 14.8978 5.36918 14.5124 5.36918C10.7062 5.37072 6.90009 5.36918 3.09548 5.36918C2.5436 5.36918 1.99171 5.36764 1.43983 5.36918C0.875614 5.37226 0.49947 5.7484 0.49947 6.30954C0.49947 6.88146 0.49947 7.45493 0.49947 8.02685C0.49947 8.46312 0.49947 8.89938 0.49947 9.34798V9.35106ZM9.95395 4.86354C9.20474 3.96018 9.50997 2.98128 10.0233 2.50339C10.6168 1.94996 11.5341 1.89909 12.1692 2.39394C12.4898 2.64367 12.6979 2.96432 12.7797 3.36205C12.8953 3.92318 12.7442 4.41648 12.3619 4.85892H13.5951V4.7063C13.5951 3.8276 13.5951 2.94736 13.5951 2.06867C13.5951 1.48441 13.2252 1.10672 12.644 1.10672C9.54543 1.10518 6.44841 1.10518 3.34984 1.10672C2.77638 1.10672 2.40331 1.48595 2.40331 2.05633C2.40331 2.9412 2.40331 3.82606 2.40331 4.70938C2.40331 4.76025 2.40794 4.80959 2.41102 4.85892H3.67049C3.35138 4.4951 3.19414 4.09584 3.21418 3.63182C3.23576 3.16627 3.41767 2.77317 3.76607 2.46947C4.39503 1.92067 5.31227 1.91142 5.92581 2.43248C6.2295 2.69146 6.42528 3.01519 6.49619 3.40829C6.59486 3.95401 6.43299 4.43036 6.06301 4.862H9.95395V4.86354ZM11.1656 2.55272C10.5197 2.55272 9.99865 3.06761 10.0017 3.70582C10.0033 4.34095 10.5305 4.86508 11.1656 4.86508C11.7977 4.86508 12.3126 4.3502 12.3156 3.71353C12.3187 3.06452 11.8131 2.55426 11.1656 2.55272ZM4.876 2.55272C4.23162 2.55118 3.71828 3.05219 3.71519 3.68578C3.71057 4.34249 4.22083 4.862 4.86983 4.86354C5.50342 4.86508 6.03218 4.33478 6.0291 3.69965C6.02756 3.06606 5.51267 2.55272 4.876 2.55118V2.55272ZM1.63715 9.88753H1.0421C1.09246 10.1301 1.20551 10.2508 1.38125 10.2498C1.50458 10.2498 1.58988 10.129 1.63715 9.88753ZM14.3675 9.88136C14.4183 10.2452 14.4276 10.2544 14.7297 10.2483C14.8777 10.2452 14.9255 10.1666 14.9486 9.88136H14.3675Z" fill="#575959"/>
<path d="M0.499474 9.35127C0.499474 8.90267 0.499474 8.4664 0.499474 8.03014C0.499474 7.45821 0.499474 6.88475 0.499474 6.31282C0.499474 5.75169 0.875618 5.37555 1.43983 5.37246C1.99172 5.36938 2.5436 5.37246 3.09548 5.37246C6.90163 5.37246 10.7078 5.37246 14.5124 5.37246C14.8978 5.37246 15.2076 5.50504 15.3911 5.85344C15.4497 5.96443 15.4913 6.10009 15.4928 6.22341C15.5005 7.24856 15.4975 8.27371 15.4975 9.29885C15.4975 9.31427 15.4928 9.32814 15.4882 9.35435H0.499474V9.35127Z" fill="#D9EAFD"/>
<path d="M9.95394 4.86337H6.06301C6.43145 4.43172 6.59485 3.95692 6.49619 3.40966C6.42528 3.01656 6.2295 2.69283 5.92581 2.43384C5.3138 1.91125 4.39503 1.92204 3.76606 2.47084C3.41767 2.77453 3.23422 3.16763 3.21418 3.63319C3.1926 4.0972 3.35138 4.49647 3.67049 4.86028H2.41102C2.40794 4.81095 2.40485 4.76008 2.40331 4.71075C2.40331 3.82589 2.40331 2.94102 2.40331 2.0577C2.40331 1.48732 2.77637 1.10809 3.34984 1.10809C6.4484 1.10655 9.54543 1.10655 12.644 1.10809C13.2252 1.10809 13.5936 1.48578 13.5951 2.07003C13.5951 2.94873 13.5951 3.82897 13.5951 4.70767V4.86028H12.3619C12.7457 4.41785 12.8953 3.923 12.7796 3.36341C12.6979 2.96723 12.4898 2.64504 12.1692 2.3953C11.5341 1.90046 10.6168 1.95287 10.0233 2.50476C9.50997 2.98264 9.20474 3.96154 9.95394 4.86491V4.86337Z" fill="#D9EAFD"/>
<path d="M11.1656 2.55274C11.8131 2.55274 12.3187 3.06454 12.3156 3.71354C12.3126 4.35021 11.7992 4.8651 11.1656 4.8651C10.529 4.8651 10.0033 4.34096 10.0017 3.70584C10.0002 3.06762 10.5212 2.5512 11.1656 2.55274Z" fill="#F4F4F4"/>
<path d="M4.876 2.55273C5.51267 2.55428 6.02601 3.06762 6.0291 3.70121C6.03064 4.33634 5.50188 4.86664 4.86983 4.8651C4.22083 4.86355 3.71211 4.3425 3.71519 3.68733C3.71982 3.0522 4.23316 2.55119 4.876 2.55428V2.55273Z" fill="#F4F4F4"/>
<path d="M1.63715 9.8877C1.58988 10.1282 1.50458 10.2489 1.38125 10.25C1.20551 10.251 1.09246 10.1302 1.04211 9.8877H1.63715Z" fill="#D9EAFD"/>
<path d="M14.3675 9.88135H14.9486C14.924 10.1665 14.8762 10.2452 14.7297 10.2482C14.4276 10.2544 14.4183 10.2452 14.3675 9.88135Z" fill="#D9EAFD"/>
</g>
<defs>
<clipPath id="clip0_413_625">
<rect width="16" height="10.1513" fill="white" transform="translate(0 0.601074)"/>
</clipPath>
</defs>
</svg>
