<svg width="16" height="20" viewBox="0 0 16 20" fill="none" xmlns="http://www.w3.org/2000/svg">
<path d="M15.573 5.57088C16.0772 7.30794 16.1658 9.06856 15.6718 10.8292C15.4537 11.6068 15.0688 12.307 14.6361 12.9837C14.4078 13.3371 14.1864 13.6973 13.9547 14.0508C13.2222 15.1718 13.0757 16.3534 13.5663 17.6024C13.7775 18.1309 13.999 18.656 14.2239 19.1812C14.3874 19.5616 14.2034 19.8646 13.7878 19.8646C11.144 19.8679 8.49685 19.8679 5.8531 19.8646C5.53285 19.8646 5.34887 19.6727 5.34887 19.3529C5.34887 18.4675 5.34887 17.5822 5.34887 16.6934V16.4544C4.722 16.4544 4.12239 16.4611 3.52277 16.451C3.10373 16.4443 2.68808 16.4308 2.26903 16.3938C1.95901 16.3669 1.79207 16.1481 1.7103 15.872C1.67623 15.7576 1.67283 15.633 1.67283 15.5118C1.67283 14.4615 1.67283 13.4112 1.67623 12.3609C1.67623 12.2161 1.63535 12.1219 1.49907 12.0579C1.13454 11.8829 0.780218 11.6977 0.41568 11.5227C-0.0408452 11.3038 -0.115797 11.0514 0.163569 10.6205C0.81088 9.61728 1.46841 8.61746 2.1055 7.60754C2.21112 7.43922 2.30651 7.22041 2.29288 7.03189C2.20771 5.60118 2.81414 4.41957 3.66586 3.3457C4.74585 1.98568 6.16994 1.12388 7.90064 0.851203C10.9362 0.369809 14.4215 1.60191 15.573 5.57088ZM15.1914 10.3713C15.5117 9.01806 15.4537 7.66477 15.1642 6.31485C14.912 5.13662 14.4283 4.05937 13.5834 3.17738C12.1729 1.7029 10.3877 1.17101 8.40486 1.36963C6.15631 1.59854 4.50056 2.78014 3.43419 4.75285C3.1412 5.29484 2.85843 5.86712 2.88909 6.4899C2.92657 7.21368 2.75622 7.83982 2.3031 8.40201C2.26222 8.45251 2.23156 8.50637 2.19408 8.56023C1.67964 9.36143 1.16179 10.1593 0.633721 10.9739C0.708673 11.0143 0.759777 11.0413 0.81088 11.0682C1.18564 11.2601 1.56721 11.452 1.94197 11.6506C2.17705 11.7751 2.27585 11.9637 2.27244 12.2464C2.25541 13.253 2.26563 14.2595 2.26563 15.2694C2.26563 15.8653 2.26563 15.8754 2.88568 15.872C3.75104 15.8687 4.6198 15.8518 5.48515 15.8417C5.84969 15.835 5.93145 15.9192 5.93145 16.276C5.93486 17.1917 5.93486 18.1073 5.93486 19.0196V19.2721H13.6072C13.5697 19.1879 13.5391 19.124 13.5152 19.0634C13.3415 18.6325 13.1643 18.2016 13.0042 17.7673C12.4966 16.4107 12.6022 15.1112 13.3789 13.8724C13.597 13.529 13.8116 13.1823 14.0365 12.8423C14.5373 12.0714 14.9768 11.2735 15.1914 10.3713Z" fill="#575959"/>
<path d="M15.1642 6.3148C15.4538 7.66472 15.5117 9.01801 15.1915 10.3713C14.9768 11.2735 14.5374 12.0713 14.0365 12.8422C13.8117 13.1822 13.5971 13.529 13.379 13.8723C12.6022 15.1112 12.4966 16.4106 13.0042 17.7673C13.1644 18.2015 13.3415 18.6324 13.5153 19.0633C13.5391 19.1239 13.5698 19.1879 13.6073 19.272H5.93493V19.0195C5.93493 18.1073 5.93493 17.1916 5.93152 16.2759C5.93152 15.9191 5.84976 15.8349 5.48522 15.8417C4.61986 15.8518 3.7511 15.8686 2.88575 15.872C2.2657 15.872 2.2657 15.8652 2.2657 15.2694C2.2657 14.2595 2.25547 13.2529 2.27251 12.2464C2.27592 11.9636 2.17712 11.7751 1.94204 11.6505C1.56728 11.4519 1.18571 11.26 0.810948 11.0681C0.759845 11.0412 0.708741 11.0143 0.633789 10.9739C1.16186 10.1592 1.67971 9.36138 2.19415 8.56018C2.23163 8.50632 2.26229 8.45245 2.30317 8.40196C2.75629 7.83977 2.92663 7.21362 2.88916 6.48985C2.8585 5.86707 3.14127 5.29478 3.43426 4.75279C4.50062 2.78009 6.15638 1.59849 8.40493 1.36957C10.3877 1.17096 12.173 1.70285 13.5834 3.17732C14.4283 4.05932 14.9121 5.13656 15.1642 6.3148ZM14.1422 9.36475C14.2852 8.89682 14.2648 8.43226 14.057 7.98789C13.7333 7.29442 13.1507 6.90055 12.4183 6.69183C12.4864 6.45619 12.5682 6.23401 12.609 6.00509C12.6772 5.64489 12.759 5.27795 12.7555 4.91101C12.7453 4.2411 12.2377 3.78664 11.5597 3.79001C11.0112 3.79674 10.5615 4.04249 10.1527 4.37576C9.77451 4.6821 9.39634 4.98844 8.99773 5.30825C8.96026 5.18369 8.933 5.07933 8.90234 4.97834C8.69793 4.2714 8.33679 3.69238 7.61112 3.39277C6.91612 3.10663 6.2654 3.21099 5.74755 3.74961C5.07639 4.44982 4.84131 5.30488 4.97418 6.24074C5.11046 7.20016 5.83272 7.65799 6.77643 7.42234C7.28406 7.29442 7.74059 7.04867 8.15964 6.7356C8.28228 6.6447 8.40153 6.54708 8.53099 6.44609C8.58209 6.99481 8.6366 7.50987 8.68089 8.02829C8.68089 8.08552 8.64342 8.15958 8.60253 8.20671C8.5378 8.28077 8.44582 8.33463 8.37427 8.40533C7.91434 8.84632 7.45781 9.29069 6.98085 9.75188C6.44596 9.30752 5.91449 8.85979 5.37279 8.41879C4.84131 7.98789 4.15993 8.08889 3.85331 8.69484C3.48196 9.42871 3.41041 10.2131 3.71022 10.9974C3.85672 11.3778 4.15653 11.6 4.59261 11.6034C5.35576 11.6169 6.04395 11.4014 6.64697 10.9368C6.79006 10.8291 6.92293 10.7113 7.06602 10.5901C7.3045 10.7887 7.53958 10.9806 7.76784 11.1759C8.18348 11.5361 8.61275 11.8693 9.14764 12.041C9.85968 12.2666 10.4695 12.0713 10.8886 11.462C11.0317 11.2533 11.1407 11.0176 11.2667 10.7955C12.7351 11.0277 13.7947 10.5026 14.1422 9.36475Z" fill="#81BCFF"/>
<path d="M14.0569 7.98808C14.2647 8.43244 14.2852 8.89701 14.1421 9.36493C13.7946 10.5028 12.735 11.0279 11.2666 10.7956C11.1406 11.0178 11.0316 11.2535 10.8885 11.4622C10.4694 12.0715 9.85959 12.2668 9.14755 12.0412C8.61267 11.8695 8.1834 11.5363 7.76776 11.1761C7.53949 10.9808 7.30442 10.7889 7.06593 10.5903C6.92284 10.7115 6.78998 10.8293 6.64689 10.937C6.04386 11.4016 5.35567 11.617 4.59252 11.6036C4.15644 11.6002 3.85663 11.378 3.71014 10.9976C3.41033 10.2133 3.48187 9.42889 3.85323 8.69502C4.15985 8.08907 4.84123 7.98808 5.3727 8.41898C5.9144 8.85998 6.44588 9.3077 6.98076 9.75207C7.45773 9.29087 7.91425 8.84651 8.37419 8.40551C8.44573 8.33482 8.53772 8.28096 8.60245 8.2069C8.64333 8.15977 8.68421 8.08571 8.68081 8.02848C8.63652 7.51005 8.58201 6.995 8.5309 6.44627C8.40144 6.54727 8.2822 6.64489 8.15955 6.73578C7.7405 7.04886 7.28398 7.2946 6.77635 7.42253C5.83264 7.65817 5.11037 7.20035 4.9741 6.24092C4.84123 5.30507 5.0763 4.45001 5.74746 3.7498C6.26531 3.21117 6.91603 3.10682 7.61104 3.39296C8.33671 3.69257 8.69784 4.27159 8.90225 4.97853C8.93292 5.07952 8.96017 5.18388 8.99765 5.30843C9.39626 4.98863 9.77442 4.68229 10.1526 4.37595C10.5614 4.04267 11.0111 3.79693 11.5596 3.79019C12.2376 3.78683 12.7452 4.24129 12.7555 4.9112C12.7555 5.27814 12.6771 5.64507 12.609 6.00528C12.5681 6.23419 12.4863 6.45637 12.4182 6.69202C13.1507 6.90074 13.7332 7.2946 14.0569 7.98808ZM13.0689 9.94059C13.5322 9.56018 13.7435 9.06196 13.6004 8.47284C13.4334 7.79283 12.9258 7.44609 12.2546 7.25421C11.9685 8.24393 11.6857 9.21681 11.3995 10.2133C12.0162 10.3816 12.5783 10.3412 13.0689 9.94059ZM12.1558 5.39933C12.1933 5.21754 12.1831 5.01556 12.1524 4.83041C12.1047 4.54426 11.9208 4.39614 11.6312 4.37258C11.2905 4.34901 10.9873 4.47694 10.7284 4.67555C10.2037 5.07952 9.69266 5.49695 9.18162 5.91438C9.13733 5.95142 9.11008 6.03558 9.11348 6.09617C9.1237 6.42608 9.14755 6.75262 9.1714 7.07916C9.18843 7.28114 9.21228 7.48649 9.23272 7.71877C9.33493 7.65481 9.40648 7.60768 9.47802 7.56392C10.1662 7.10945 10.8578 6.67519 11.7232 6.64826C11.7675 6.64826 11.8322 6.5944 11.8458 6.554C11.9548 6.17023 12.0741 5.78983 12.1558 5.39933ZM11.6482 7.23064C11.5119 7.25421 11.4063 7.26767 11.3041 7.29124C10.6432 7.44946 10.1151 7.85679 9.55638 8.21026C9.36219 8.33145 9.35197 8.45601 9.4201 8.64453C9.6654 9.33464 10.1356 9.79246 10.8374 10.0449C11.1065 9.10572 11.3723 8.18333 11.6482 7.23064ZM9.23613 11.4521C9.90048 11.7214 10.4865 11.3679 10.6568 10.6071C9.76761 10.2873 9.14414 9.69484 8.8273 8.71859C8.33671 9.19998 7.887 9.64434 7.41003 10.1123C7.80523 10.4455 8.13911 10.7283 8.47639 11.0077C8.52409 11.0515 8.57519 11.0953 8.6297 11.1256C8.83071 11.24 9.0215 11.3679 9.23613 11.4521ZM7.96195 6.14667C8.53431 5.68547 8.5309 5.68547 8.29242 4.98863C8.12889 4.50723 7.86315 4.12347 7.36915 3.92148C6.91944 3.7397 6.51402 3.80366 6.17673 4.14366C5.71339 4.60823 5.55668 5.19061 5.50898 5.88072C5.52942 5.99854 5.54986 6.17696 5.60097 6.34528C5.73384 6.77618 6.02002 6.9546 6.47313 6.8839C7.04549 6.79638 7.52246 6.5035 7.96195 6.14667ZM6.6026 10.1998C6.08134 9.76553 5.57712 9.338 5.06608 8.9172C4.71177 8.62433 4.43921 8.70512 4.2825 9.13939C4.26546 9.18651 4.25183 9.23364 4.23821 9.28414C4.12578 9.75207 4.06786 10.2234 4.22117 10.6947C4.2825 10.8933 4.39492 11.0347 4.63341 11.0347C5.39996 11.0279 6.05068 10.7553 6.6026 10.1998Z" fill="#FFF089"/>
<path d="M13.6004 8.47254C13.7435 9.06166 13.5323 9.55988 13.069 9.94028C12.5784 10.3409 12.0162 10.3813 11.3996 10.213C11.6858 9.21651 11.9685 8.24362 12.2547 7.25391C12.9259 7.44579 13.4335 7.79253 13.6004 8.47254Z" fill="#81BCFF"/>
<path d="M12.1525 4.83025C12.1832 5.0154 12.1934 5.21738 12.1559 5.39917C12.0742 5.78967 11.9549 6.17007 11.8459 6.55384C11.8323 6.59423 11.7675 6.6481 11.7233 6.6481C10.8579 6.67503 10.1663 7.10929 9.47811 7.56375C9.40656 7.60752 9.33502 7.65465 9.23281 7.71861C9.21237 7.48633 9.18852 7.28098 9.17148 7.07899C9.14764 6.75245 9.12379 6.42591 9.11357 6.09601C9.11016 6.03541 9.13742 5.95125 9.18171 5.91422C9.69274 5.49679 10.2038 5.07936 10.7284 4.67539C10.9874 4.47678 11.2906 4.34885 11.6313 4.37242C11.9209 4.39598 12.1048 4.5441 12.1525 4.83025Z" fill="#81BCFF"/>
<path d="M11.3041 7.29106C11.4063 7.2675 11.5119 7.25403 11.6482 7.23047C11.3722 8.18316 11.1065 9.10555 10.8373 10.0448C10.1355 9.79229 9.66535 9.33446 9.42006 8.64435C9.35192 8.45583 9.36214 8.33128 9.55633 8.21009C10.1151 7.85662 10.6431 7.44928 11.3041 7.29106Z" fill="#81BCFF"/>
<path d="M10.6568 10.6068C10.4864 11.3676 9.90044 11.7211 9.2361 11.4518C9.02146 11.3676 8.83067 11.2397 8.62967 11.1252C8.57516 11.0949 8.52405 11.0512 8.47636 11.0074C8.13907 10.728 7.8052 10.4452 7.41 10.1119C7.88696 9.64402 8.33667 9.19966 8.82727 8.71826C9.14411 9.69451 9.76757 10.287 10.6568 10.6068Z" fill="#81BCFF"/>
<path d="M8.29239 4.98829C8.53087 5.68514 8.53428 5.68514 7.96192 6.14633C7.52243 6.50317 7.04546 6.79604 6.4731 6.88357C6.01998 6.95426 5.7338 6.77585 5.60094 6.34495C5.54983 6.17663 5.52939 5.99821 5.50895 5.88039C5.55665 5.19028 5.71336 4.60789 6.1767 4.14333C6.51399 3.80332 6.91941 3.73936 7.36912 3.92115C7.86312 4.12313 8.12886 4.5069 8.29239 4.98829Z" fill="#81BCFF"/>
<path d="M5.06607 8.91705C5.5771 9.33785 6.08132 9.76538 6.60258 10.1996C6.05066 10.7551 5.39994 11.0278 4.63339 11.0345C4.39491 11.0345 4.28248 10.8931 4.22115 10.6945C4.06784 10.2232 4.12576 9.75192 4.23819 9.28399C4.25182 9.23349 4.26544 9.18636 4.28248 9.13923C4.4392 8.70497 4.71175 8.62418 5.06607 8.91705Z" fill="#81BCFF"/>
</svg>
