<svg width="32" height="32" viewBox="0 0 32 32" fill="none" xmlns="http://www.w3.org/2000/svg">
<g clip-path="url(#clip0_413_733)">
<path d="M30.0597 14.9097C30.0716 15.4355 29.9109 15.8541 29.5815 16.2013C29.2958 16.5029 29.0042 16.8025 28.7006 17.0862C28.0479 17.6972 27.2047 17.7786 26.4349 17.3163C26.3198 17.2469 26.1968 17.1794 26.1016 17.0862C25.8119 16.7985 25.5302 16.8124 25.1552 16.9691C24.8199 17.11 24.7108 17.3104 24.6751 17.6278C24.6037 18.2567 24.4172 18.846 23.8378 19.1852C23.5621 19.3459 23.2307 19.461 22.9133 19.4987C22.4609 19.5503 21.9987 19.5265 21.5423 19.5086C20.7924 19.4809 20.1496 18.9749 19.9234 18.2587C19.8778 18.1099 19.8182 17.9571 19.8163 17.8064C19.8103 17.3223 19.602 17.0346 19.1179 16.8997C18.8858 16.8342 18.727 16.8243 18.5227 16.9691C18.2291 17.1774 17.9176 17.3838 17.5843 17.5088C16.9871 17.731 16.4038 17.6218 15.9177 17.2131C15.5288 16.8858 15.1677 16.5207 14.8324 16.1378C14.3106 15.5426 14.2531 14.7391 14.6459 14.0487C14.7015 13.9495 14.7511 13.8364 14.8324 13.763C15.3165 13.3384 15.1578 12.884 14.892 12.4376C14.8404 12.3503 14.7035 12.2869 14.5963 12.267C14.013 12.1619 13.4218 12.0865 12.9873 11.6103C12.6897 11.283 12.5032 10.9119 12.4913 10.4655C12.4814 10.1322 12.4993 9.79892 12.4794 9.46759C12.408 8.32282 13.0627 7.51136 14.2472 7.33875C14.4495 7.30899 14.7233 7.31891 14.8305 7.1959C15.0051 6.99353 15.0884 6.70189 15.1677 6.43603C15.1935 6.34675 15.1102 6.20589 15.0467 6.11065C14.7848 5.71385 14.4793 5.34483 14.4158 4.84287C14.3464 4.29331 14.4733 3.80524 14.8364 3.39852C15.1558 3.0414 15.4951 2.70412 15.8502 2.38271C16.4077 1.87877 17.2609 1.79941 17.9156 2.16645C18.0426 2.23788 18.1795 2.30335 18.2787 2.40652C18.6278 2.76761 18.9869 2.76364 19.4076 2.52754C19.606 2.41644 19.721 2.32121 19.7567 2.07717C19.8083 1.72204 19.8877 1.35698 20.0345 1.0316C20.2964 0.448306 20.7944 0.111025 21.4193 0.0475367C21.955 -0.00603137 22.5046 -0.00999938 23.0403 0.0475367C23.9351 0.142769 24.5005 0.799474 24.6711 1.83116C24.7029 2.02162 24.6949 2.28549 24.814 2.37874C25.0342 2.55135 25.3318 2.63269 25.6036 2.73189C25.6592 2.75173 25.7544 2.69221 25.8199 2.64857C26.0381 2.5077 26.2425 2.34501 26.4647 2.21209C27.1729 1.78751 28.0181 1.85496 28.6371 2.40255C28.9705 2.69817 29.2879 3.01759 29.5875 3.3509C30.1589 3.98975 30.2243 4.84287 29.7799 5.57497C29.7363 5.6464 29.6986 5.72576 29.6391 5.77932C29.2323 6.15628 29.2383 6.55904 29.5081 7.01536C29.6014 7.17408 29.6768 7.27526 29.8692 7.28717C30.0636 7.30106 30.2581 7.35264 30.4505 7.39232C31.3771 7.57882 31.9762 8.29901 31.9861 9.2434C31.9901 9.62829 31.9941 10.0132 31.9842 10.3981C31.9623 11.1877 31.4465 11.8583 30.6926 12.0885C30.5438 12.1341 30.391 12.1916 30.2382 12.1936C29.772 12.1956 29.5141 12.4079 29.3692 12.8563C29.2819 13.1241 29.2919 13.3047 29.4625 13.5249C29.7898 13.9455 30.0894 14.3859 30.0597 14.9157V14.9097ZM17.0109 6.23961C16.9692 6.3904 16.9494 6.50547 16.9077 6.61062C16.6855 7.15821 16.4593 7.70182 16.2312 8.24743C16.1082 8.53907 15.882 8.70573 15.5745 8.76128C15.2074 8.82874 14.8404 8.89818 14.4694 8.95175C14.2075 8.98944 14.0845 9.10452 14.1043 9.38426C14.1242 9.664 14.1142 9.94573 14.1043 10.2275C14.0984 10.4437 14.1916 10.5489 14.4059 10.5806C14.765 10.6342 15.1201 10.7096 15.4792 10.7651C15.876 10.8266 16.1339 11.031 16.2788 11.4119C16.4573 11.8861 16.6498 12.3563 16.8641 12.8166C17.0307 13.1757 17.0049 13.4971 16.7788 13.8126C16.5625 14.1181 16.3482 14.4256 16.13 14.7292C15.999 14.9097 16.007 15.0645 16.1756 15.2232C16.3819 15.4136 16.5803 15.612 16.7708 15.8204C16.9375 16.0009 17.0962 16.0069 17.2886 15.864C17.5823 15.6478 17.8838 15.4434 18.1795 15.2331C18.4929 15.0089 18.8104 14.9672 19.1734 15.1379C19.6317 15.3521 20.1039 15.5446 20.5781 15.7212C20.9729 15.868 21.1813 16.1338 21.2408 16.5425C21.2924 16.8917 21.3717 17.2369 21.4213 17.5861C21.4531 17.8183 21.5701 17.9075 21.7963 17.9016C22.0879 17.8917 22.3796 17.8897 22.6712 17.9016C22.9093 17.9135 23.0085 17.7945 23.0442 17.5802C23.1038 17.2211 23.1811 16.8659 23.2287 16.5068C23.2823 16.1001 23.5105 15.862 23.8835 15.7192C24.3477 15.5426 24.81 15.3561 25.2604 15.1478C25.6294 14.9752 25.9568 15.001 26.2821 15.2391C26.5837 15.4593 26.8972 15.6676 27.2007 15.8839C27.3733 16.0069 27.5202 15.9989 27.669 15.8442C27.8773 15.6259 28.0935 15.4156 28.3078 15.2033C28.4487 15.0645 28.4586 14.9236 28.3415 14.7609C28.1173 14.4494 27.9031 14.128 27.6789 13.8165C27.4487 13.4991 27.4348 13.1797 27.5995 12.8225C27.8078 12.3722 28.0023 11.9119 28.1709 11.4456C28.3197 11.0369 28.5895 10.8246 29.0121 10.7671C29.3613 10.7195 29.7065 10.6401 30.0557 10.5866C30.268 10.5548 30.3672 10.4497 30.3632 10.2334C30.3573 9.94177 30.3513 9.65012 30.3632 9.35847C30.3751 9.1065 30.2482 9.00135 30.022 8.96365C29.6629 8.90413 29.3077 8.82874 28.9486 8.77715C28.5578 8.7216 28.3177 8.50931 28.1808 8.14227C28.0023 7.6681 27.8138 7.1959 27.5995 6.73561C27.4329 6.37651 27.4547 6.05708 27.6789 5.73964C27.9031 5.42617 28.1193 5.10873 28.3435 4.79526C28.4586 4.63455 28.4526 4.49567 28.3038 4.35481C28.0856 4.14649 27.8713 3.9342 27.665 3.71398C27.5162 3.55724 27.3713 3.54534 27.1987 3.67033C26.8873 3.8965 26.5698 4.11276 26.2563 4.33497C25.9488 4.55321 25.6353 4.57107 25.2881 4.41433C24.8179 4.20006 24.3358 4.00761 23.8517 3.82111C23.4986 3.6862 23.2903 3.45209 23.2327 3.07513C23.1791 2.71602 23.1038 2.36089 23.0482 2.00178C23.0105 1.75973 22.9014 1.63077 22.6355 1.64466C22.3459 1.66053 22.0522 1.65061 21.7606 1.64664C21.5582 1.64466 21.457 1.74386 21.4253 1.93829C21.3658 2.30732 21.2943 2.67436 21.2368 3.04338C21.1773 3.42828 20.9729 3.68025 20.6059 3.82111C20.1218 4.00761 19.6397 4.19807 19.1695 4.41433C18.8203 4.57503 18.5108 4.55519 18.2033 4.33497C17.8898 4.11276 17.5724 3.8965 17.2609 3.67033C17.0883 3.54534 16.9395 3.55922 16.7926 3.71001C16.5903 3.92031 16.3859 4.12665 16.1736 4.32703C16.009 4.48377 15.9951 4.63852 16.128 4.82105C16.3482 5.1246 16.5684 5.42816 16.7688 5.74163C16.872 5.90432 16.9355 6.0928 17.0069 6.24557L17.0109 6.23961Z" fill="#575959"/>
<path d="M5.64448 10.1265C6.10874 10.1107 6.57697 10.2932 6.95789 10.6305C7.4777 11.0908 7.95585 11.2316 8.63239 10.8626C9.02126 10.6503 9.22958 10.4658 9.25339 10.0392C9.26529 9.81306 9.31886 9.58689 9.37639 9.36666C9.47758 8.9778 9.90612 8.704 10.2831 8.77146C10.6819 8.84289 11.0033 9.21786 10.9497 9.62458C10.8684 10.2416 10.7473 10.8527 10.6323 11.4657C10.5727 11.7832 10.3426 11.9518 10.0569 12.0669C9.42203 12.3228 8.78913 12.5768 8.16218 12.8506C7.82689 12.9974 7.52135 12.9974 7.22177 12.7851C6.80513 12.4915 6.38848 12.1978 5.96986 11.9082C5.62266 11.6681 5.42029 11.6879 5.11674 11.9875C4.82707 12.2732 4.53939 12.5569 4.25568 12.8506C4.00768 13.1065 3.98982 13.3089 4.19219 13.6025C4.47392 14.0152 4.75763 14.4259 5.05325 14.8266C5.31911 15.1857 5.31117 15.5369 5.12269 15.9337C4.86675 16.4753 4.62471 17.0289 4.43424 17.5983C4.27552 18.0745 3.98387 18.3145 3.49977 18.384C3.02758 18.4514 2.55936 18.5466 2.08915 18.63C1.77171 18.6855 1.62291 18.878 1.62092 19.1934C1.62092 19.6299 1.61497 20.0684 1.62092 20.5049C1.62688 20.8263 1.78163 21.0068 2.09708 21.0644C2.58713 21.1556 3.07718 21.2429 3.5712 21.3183C3.99181 21.3838 4.2537 21.5961 4.4025 22.0087C4.62074 22.6119 4.87072 23.2051 5.13856 23.7884C5.31315 24.1673 5.30522 24.5006 5.06317 24.8399C4.77747 25.2367 4.49773 25.6375 4.22195 26.0402C3.98586 26.3854 3.99776 26.5759 4.27949 26.8676C4.56122 27.1592 4.8489 27.4469 5.14055 27.7286C5.42227 28.0004 5.61671 28.0163 5.94208 27.7941C6.34484 27.5183 6.74759 27.2386 7.14042 26.9509C7.48762 26.6969 7.8249 26.6831 8.21774 26.8656C8.78913 27.1334 9.37441 27.3755 9.96763 27.5897C10.3882 27.7405 10.6184 27.9984 10.6819 28.4369C10.7513 28.919 10.8446 29.3992 10.9319 29.8793C10.9953 30.2285 11.1699 30.3753 11.535 30.3792C11.9417 30.3832 12.3464 30.3832 12.7532 30.3792C13.152 30.3753 13.2988 30.2622 13.3761 29.8733C13.4773 29.3634 13.5726 28.8536 13.6599 28.3417C13.7273 27.9488 13.9594 27.7366 14.3265 27.5997C14.9376 27.3715 15.5387 27.1156 16.1339 26.8497C16.491 26.689 16.8105 26.693 17.1299 26.9191C17.5445 27.2148 17.9612 27.5084 18.3818 27.7961C18.7072 28.0203 18.8956 28.0004 19.1813 27.7207C19.4789 27.429 19.7726 27.1354 20.0642 26.8358C20.3043 26.5898 20.3241 26.3696 20.1297 26.0819C19.85 25.6692 19.5643 25.2585 19.2686 24.8558C19.0048 24.4967 19.0048 24.1495 19.1972 23.7487C19.4651 23.1892 19.7071 22.6139 19.9134 22.0286C20.0622 21.604 20.3221 21.3798 20.7586 21.3143C21.2626 21.2409 21.7605 21.1298 22.2645 21.0644C22.7645 20.9969 23.1712 21.2885 23.2366 21.725C23.3021 22.1635 23.0085 22.5484 22.5145 22.6555C22.2208 22.719 21.9232 22.7785 21.6256 22.8083C21.4272 22.8281 21.33 22.9154 21.2764 23.098C21.2268 23.2666 21.1812 23.4471 21.084 23.59C20.7765 24.0344 20.8618 24.3975 21.205 24.7943C21.58 25.2268 21.8697 25.7208 21.8816 26.3319C21.8915 26.8993 21.7427 27.4052 21.3538 27.8199C20.963 28.2365 20.5682 28.6551 20.1356 29.0281C19.3778 29.6868 18.4512 29.7424 17.5981 29.2127C17.2985 29.0262 17.0049 28.8258 16.7271 28.6095C16.5803 28.4944 16.4633 28.4984 16.3045 28.5738C16.0248 28.7067 15.7391 28.8397 15.4435 28.9309C15.2252 28.9984 15.1558 29.1293 15.1241 29.3297C15.0665 29.6888 15.0149 30.0499 14.9257 30.4011C14.6896 31.3415 13.8741 31.9764 12.9 31.9942C12.4516 32.0022 12.0052 31.9962 11.5568 31.9942C10.3525 31.9903 9.50734 31.2701 9.31291 30.0797C9.27521 29.8535 9.20775 29.6313 9.19982 29.4051C9.1899 29.1214 9.06689 28.9865 8.79508 28.9071C8.50939 28.8238 8.24353 28.6651 7.9618 28.5659C7.86458 28.5321 7.71578 28.5421 7.63047 28.5936C7.31303 28.7901 7.02138 29.0301 6.70196 29.2265C5.84884 29.7523 4.88263 29.669 4.14061 28.9944C3.73984 28.6313 3.35494 28.2484 2.99187 27.8477C2.32723 27.1116 2.24192 26.1593 2.75379 25.3141C2.94624 24.9947 3.1863 24.703 3.38074 24.3836C3.43827 24.2884 3.4601 24.1316 3.42438 24.0285C3.30931 23.6951 3.1744 23.3678 3.01766 23.0523C2.96806 22.9511 2.84307 22.85 2.73593 22.8242C2.39469 22.7408 2.03955 22.7031 1.69632 22.6258C0.658682 22.3936 0.0099123 21.5742 0.00197628 20.4989C-7.71972e-06 20.0624 -7.71972e-06 19.624 0.00197628 19.1875C0.0079283 18.0546 0.728122 17.2074 1.84313 17.011C2.20025 16.9475 2.63277 16.9793 2.89267 16.7849C3.1367 16.6023 3.17638 16.1639 3.34701 15.8603C3.50573 15.5766 3.49382 15.3564 3.27558 15.1143C3.11686 14.9377 2.99385 14.7274 2.86093 14.529C2.23795 13.6005 2.28556 12.6125 3.03155 11.7852C3.40058 11.3765 3.80928 11.0035 4.21402 10.6305C4.59693 10.2773 5.06317 10.1206 5.64647 10.1285L5.64448 10.1265Z" fill="#575959"/>
<path d="M12.1639 25.278C9.45575 25.2602 7.21581 23.3337 6.80115 20.6354C6.30515 17.4134 8.76135 14.5942 11.8147 14.4295C12.2036 14.4077 12.5647 14.3997 12.8167 14.7648C13.1639 15.2687 12.8702 15.9215 12.2671 16.0187C11.7671 16.098 11.2473 16.1417 10.7791 16.3143C9.17402 16.9055 8.21773 18.5046 8.37645 20.2446C8.52525 21.8854 9.83073 23.2801 11.4913 23.5738C13.7253 23.9706 15.7728 22.3853 15.9454 20.1256C15.9692 19.8161 15.9712 19.4966 16.2192 19.2566C16.4434 19.0383 16.8204 18.961 17.0882 19.0919C17.4156 19.2506 17.5941 19.5165 17.5922 19.8855C17.5922 22.5242 15.6062 24.8038 12.9674 25.1947C12.7016 25.2344 12.4318 25.2502 12.1619 25.276L12.1639 25.278Z" fill="#575959"/>
<path d="M22.2169 13.6422C20.0583 13.6322 18.3441 11.8962 18.362 9.73764C18.3778 7.60086 20.1158 5.88272 22.2506 5.89065C24.3894 5.89859 26.1273 7.6584 26.1135 9.80311C26.0996 11.9319 24.3536 13.6521 22.2169 13.6422ZM22.2288 12.0153C23.4727 12.0153 24.5005 10.9915 24.4886 9.75748C24.4767 8.51946 23.441 7.50166 22.205 7.51357C20.9967 7.52547 19.9968 8.53533 19.9888 9.75152C19.9809 11.0114 20.9749 12.0133 22.2308 12.0153H22.2288Z" fill="#575959"/>
</g>
<defs>
<clipPath id="clip0_413_733">
<rect width="31.9921" height="32" fill="white"/>
</clipPath>
</defs>
</svg>
