<svg width="32" height="33" viewBox="0 0 32 33" fill="none" xmlns="http://www.w3.org/2000/svg">
<g clip-path="url(#clip0_413_790)">
<path d="M21.12 23.7398C21.14 24.7298 21.11 25.7198 21.14 26.7198C21.15 27.4398 20.68 27.9498 19.91 27.9198C18.59 27.8898 17.28 27.9098 15.96 27.9098H11.97C11.22 27.9098 10.81 27.5198 10.81 26.7598C10.81 25.7098 10.81 24.6598 10.81 23.6098C10.82 23.3798 10.74 23.2398 10.55 23.0998C8.40001 21.5298 7.05001 19.4598 6.77001 16.8298C6.39001 13.3398 7.69001 10.4998 10.52 8.37979C12.23 7.09979 14.19 6.53979 16.33 6.61979C20.63 6.75979 24.33 9.88979 25.07 14.0798C25.72 17.7698 24.43 20.7398 21.47 23.0398C21.22 23.2398 21.12 23.4198 21.12 23.7398ZM11.77 16.7798C12.38 16.8098 12.8 16.4298 12.87 15.7998C12.89 15.5698 12.9 15.3398 12.95 15.1198C13.28 13.6998 14.39 12.8098 15.94 12.7098C16.6 12.6698 17.01 12.2498 16.99 11.6498C16.96 11.0698 16.48 10.6698 15.7 10.6798C15.66 10.6798 15.61 10.6898 15.55 10.6998C15.38 10.7198 15.14 10.7498 14.92 10.7898C14.78 10.8198 14.63 10.8498 14.49 10.8998C14.35 10.9398 14.21 10.9798 14.08 11.0398C13.54 11.2498 13.04 11.5498 12.61 11.9298C11.52 12.8598 10.82 14.2298 10.81 15.6898C10.81 16.2798 11.22 16.7498 11.77 16.7798Z" fill="#FDE53F"/>
<path d="M30.4 16.7799H29.34C29 16.7799 28.65 16.7799 28.31 16.7699C27.74 16.7599 27.29 16.3299 27.28 15.7899C27.26 15.2599 27.7 14.7799 28.27 14.7499C29 14.7299 29.73 14.7299 30.46 14.7499C31.05 14.7699 31.46 15.2399 31.45 15.8099C31.43 16.3599 31 16.7599 30.4 16.7799Z" fill="#FDE53F"/>
<path d="M26.82 6.49002C26.36 6.96002 25.89 7.42002 25.42 7.88002C25.09 8.19002 24.7 8.26002 24.28 8.08002C23.89 7.91002 23.69 7.58002 23.66 6.99002C23.73 6.87002 23.83 6.60002 24.01 6.40002C24.45 5.92002 24.93 5.48002 25.4 5.03002C25.87 4.58002 26.49 4.57002 26.91 4.98002C27.33 5.40002 27.29 6.02002 26.82 6.49002Z" fill="#FDE53F"/>
<path d="M25.46 23.7001C25.98 24.1701 26.47 24.6801 26.96 25.1801C27.38 25.6101 27.37 26.2201 26.96 26.6201C26.54 27.0201 25.93 27.0201 25.5 26.6201C24.98 26.1101 24.46 25.6101 23.96 25.0901C23.65 24.7801 23.58 24.3901 23.76 24.0001C23.93 23.6101 24.25 23.3901 24.74 23.3101C24.98 23.4401 25.26 23.5301 25.46 23.7101V23.7001Z" fill="#FDE53F"/>
<path d="M14.92 10.7902C15.14 10.7502 15.38 10.7202 15.55 10.7002C15.38 10.7302 15.14 10.7602 14.92 10.8002C14.78 10.8302 14.63 10.8602 14.49 10.9002C14.63 10.8502 14.78 10.8202 14.92 10.7902Z" fill="#575959"/>
<path d="M16.98 1.42C17.01 2.17 17.01 2.92 16.98 3.67C16.96 4.22 16.51 4.6 15.97 4.6C15.43 4.6 14.99 4.2 14.95 3.64C14.92 3.28 14.94 2.9 14.94 2.53H14.95C14.95 2.16 14.93 1.79 14.96 1.42C15 0.87 15.42 0.5 15.97 0.5C16.52 0.5 16.96 0.87 16.98 1.42Z" fill="#FDE53F"/>
<path d="M14.08 11.04C13.54 11.26 13.04 11.56 12.61 11.93C13.04 11.55 13.54 11.25 14.08 11.04Z" fill="#575959"/>
<path d="M18.52 29.9198C19.19 29.9298 19.67 30.3798 19.75 31.0198C19.82 31.5898 19.43 32.1498 18.85 32.3198C18.71 32.3598 18.55 32.3698 18.39 32.3698H15.97C15.13 32.3698 14.29 32.3798 13.45 32.3698C12.73 32.3698 12.2 31.8398 12.19 31.1598C12.18 30.4798 12.69 29.9198 13.41 29.9198C15.11 29.8998 16.81 29.8998 18.52 29.9198Z" fill="#FDE53F"/>
<path d="M15.7 10.6799C16.48 10.6699 16.96 11.0699 16.99 11.6499C17.01 12.2499 16.6 12.6699 15.94 12.7099C14.39 12.8099 13.28 13.6999 12.95 15.1199C12.9 15.3399 12.89 15.5699 12.87 15.7999C12.8 16.4299 12.38 16.8099 11.77 16.7799C11.22 16.7499 10.81 16.2799 10.81 15.6899C10.82 14.2299 11.52 12.8599 12.61 11.9299C13.04 11.5599 13.54 11.2599 14.08 11.0399C14.21 10.9799 14.35 10.9399 14.49 10.8999C14.63 10.8599 14.78 10.8299 14.92 10.7999C15.14 10.7599 15.38 10.7299 15.55 10.6999C15.61 10.6899 15.66 10.6799 15.7 10.6799Z" fill="white"/>
<path d="M5.00999 6.38017C4.62999 5.97017 4.63999 5.38017 5.00999 4.99017C5.38999 4.59017 6.00999 4.56017 6.43999 4.95017C6.96999 5.44017 7.48999 5.94017 7.97999 6.47017C8.13999 6.64017 8.20999 6.90017 8.25999 7.01017H8.26999C8.24999 7.58017 8.04999 7.90017 7.64999 8.08017C7.24999 8.26017 6.85999 8.20017 6.54999 7.91017C6.01999 7.41017 5.50999 6.90017 4.99999 6.38017H5.00999Z" fill="#FDE53F"/>
<path d="M4.91999 25.25C5.44999 24.69 6.00999 24.14 6.57999 23.61C6.89999 23.32 7.29999 23.3 7.69999 23.48C8.07999 23.66 8.25999 23.98 8.26999 24.54C8.20999 24.66 8.12999 24.92 7.95999 25.1C7.46999 25.62 6.93999 26.12 6.41999 26.62C6.01999 27.01 5.40999 27 5.00999 26.64C4.60999 26.27 4.53999 25.66 4.91999 25.25Z" fill="#FDE53F"/>
<path d="M1.52999 16.7798C0.939993 16.7598 0.519993 16.3698 0.499993 15.8298C0.469993 15.2598 0.869993 14.7798 1.45999 14.7598C2.19999 14.7298 2.94999 14.7298 3.68999 14.7598C4.25999 14.7798 4.68999 15.2798 4.66999 15.7998C4.63999 16.3398 4.19999 16.7598 3.61999 16.7798H1.52999Z" fill="#FDE53F"/>
<path d="M15.96 27.9098H11.97C11.22 27.9098 10.81 27.5198 10.81 26.7598C10.81 25.7098 10.81 24.6598 10.81 23.6098C10.82 23.3798 10.74 23.2398 10.55 23.0998C8.40001 21.5298 7.05001 19.4598 6.77001 16.8298C6.39001 13.3398 7.69001 10.4998 10.52 8.37979C12.23 7.09979 14.19 6.53979 16.33 6.61979C20.63 6.75979 24.33 9.88979 25.07 14.0798C25.72 17.7698 24.43 20.7398 21.47 23.0398C21.22 23.2398 21.12 23.4198 21.12 23.7398C21.14 24.7298 21.11 25.7198 21.14 26.7198C21.15 27.4398 20.68 27.9498 19.91 27.9198C18.59 27.8898 17.28 27.9098 15.96 27.9098Z" stroke="#575959" stroke-miterlimit="10"/>
<path d="M15.97 32.3698C15.13 32.3698 14.29 32.3798 13.45 32.3698C12.73 32.3698 12.2 31.8398 12.19 31.1598C12.18 30.4798 12.69 29.9198 13.41 29.9198C15.11 29.8998 16.81 29.8998 18.52 29.9198C19.19 29.9298 19.67 30.3798 19.75 31.0198C19.82 31.5898 19.43 32.1498 18.85 32.3198C18.71 32.3598 18.55 32.3698 18.39 32.3698H15.97Z" stroke="#575959" stroke-miterlimit="10"/>
<path d="M24.74 23.2998C24.98 23.4298 25.26 23.5198 25.46 23.6998C25.98 24.1698 26.47 24.6798 26.96 25.1798C27.38 25.6098 27.37 26.2198 26.96 26.6198C26.54 27.0198 25.93 27.0198 25.5 26.6198C24.98 26.1098 24.46 25.6098 23.96 25.0898C23.65 24.7798 23.58 24.3898 23.76 23.9998C23.93 23.6098 24.25 23.3898 24.74 23.3098V23.2998Z" stroke="#575959" stroke-miterlimit="10"/>
<path d="M8.26999 24.54C8.20999 24.66 8.12999 24.92 7.95999 25.1C7.46999 25.62 6.93999 26.12 6.41999 26.62C6.01999 27.01 5.40999 27 5.00999 26.64C4.60999 26.27 4.53999 25.66 4.91999 25.25C5.44999 24.69 6.00999 24.14 6.57999 23.61C6.89999 23.32 7.29999 23.3 7.69999 23.48C8.07999 23.66 8.25999 23.98 8.26999 24.54Z" stroke="#575959" stroke-miterlimit="10"/>
<path d="M14.95 2.53C14.95 2.16 14.93 1.79 14.96 1.42C15 0.87 15.42 0.5 15.97 0.5C16.52 0.5 16.96 0.87 16.98 1.42C17.01 2.17 17.01 2.92 16.98 3.67C16.96 4.22 16.51 4.6 15.97 4.6C15.43 4.6 14.99 4.2 14.95 3.64C14.92 3.28 14.94 2.9 14.94 2.53H14.95Z" stroke="#575959" stroke-miterlimit="10"/>
<path d="M2.55999 16.7798H1.52999C0.939993 16.7598 0.519993 16.3698 0.499993 15.8298C0.469993 15.2598 0.869993 14.7798 1.45999 14.7598C2.19999 14.7298 2.94999 14.7298 3.68999 14.7598C4.25999 14.7798 4.68999 15.2798 4.66999 15.7998C4.63999 16.3398 4.19999 16.7598 3.61999 16.7798H2.55999Z" stroke="#575959" stroke-miterlimit="10"/>
<path d="M29.34 16.7799C29 16.7799 28.65 16.7799 28.31 16.7699C27.74 16.7599 27.29 16.3299 27.28 15.7899C27.26 15.2599 27.7 14.7799 28.27 14.7499C29 14.7299 29.73 14.7299 30.46 14.7499C31.05 14.7699 31.46 15.2399 31.45 15.8099C31.43 16.3599 31 16.7599 30.4 16.7799H29.34Z" stroke="#575959" stroke-miterlimit="10"/>
<path d="M8.27999 7.01017C8.25999 7.58017 8.05999 7.90017 7.65999 8.08017C7.25999 8.26017 6.86999 8.20017 6.55999 7.91017C6.02999 7.41017 5.51999 6.90017 5.00999 6.38017C4.62999 5.97017 4.63999 5.38017 5.00999 4.99017C5.38999 4.59017 6.00999 4.56017 6.43999 4.95017C6.96999 5.44017 7.48999 5.94017 7.97999 6.47017C8.13999 6.64017 8.20999 6.90017 8.25999 7.01017H8.26999H8.27999Z" stroke="#575959" stroke-miterlimit="10"/>
<path d="M23.66 6.99002C23.73 6.87002 23.83 6.60002 24.01 6.40002C24.45 5.92002 24.93 5.48002 25.4 5.03002C25.87 4.58002 26.49 4.57002 26.91 4.98002C27.33 5.40002 27.29 6.02002 26.82 6.49002C26.36 6.96002 25.89 7.42002 25.42 7.88002C25.09 8.19002 24.7 8.26002 24.28 8.08002C23.89 7.91002 23.69 7.58002 23.66 6.99002Z" stroke="#575959" stroke-miterlimit="10"/>
<path d="M15.55 10.6999C15.61 10.6899 15.66 10.6799 15.7 10.6799C16.48 10.6699 16.96 11.0699 16.99 11.6499C17.01 12.2499 16.6 12.6699 15.94 12.7099C14.39 12.8099 13.28 13.6999 12.95 15.1199C12.9 15.3399 12.89 15.5699 12.87 15.7999C12.8 16.4299 12.38 16.8099 11.77 16.7799C11.22 16.7499 10.81 16.2799 10.81 15.6899C10.82 14.2299 11.52 12.8599 12.61 11.9299C13.04 11.5499 13.54 11.2499 14.08 11.0399C14.21 10.9799 14.35 10.9399 14.49 10.8999C14.63 10.8499 14.78 10.8199 14.92 10.7899C15.14 10.7499 15.38 10.7199 15.55 10.6999Z" stroke="#575959" stroke-miterlimit="10"/>
</g>
<defs>
<clipPath id="clip0_413_790">
<rect width="31.95" height="32.87" fill="white"/>
</clipPath>
</defs>
</svg>
